%TF.GenerationSoftware,KiCad,Pcbnew,9.0.0*%
%TF.CreationDate,2025-03-25T20:24:53+01:00*%
%TF.ProjectId,YAHA,59414841-2e6b-4696-9361-645f70636258,rev?*%
%TF.SameCoordinates,Original*%
%TF.FileFunction,Legend,Top*%
%TF.FilePolarity,Positive*%
%FSLAX46Y46*%
G04 Gerber Fmt 4.6, Leading zero omitted, Abs format (unit mm)*
G04 Created by KiCad (PCBNEW 9.0.0) date 2025-03-25 20:24:53*
%MOMM*%
%LPD*%
G01*
G04 APERTURE LIST*
%ADD10C,0.100000*%
%ADD11C,0.150000*%
%ADD12C,0.120000*%
G04 APERTURE END LIST*
D10*
X188176340Y-143505639D02*
X188652531Y-143505639D01*
X187652531Y-143838972D02*
X188176340Y-143505639D01*
X188176340Y-143505639D02*
X187652531Y-143172306D01*
X188366816Y-142886591D02*
X188366816Y-142410401D01*
X188652531Y-142981829D02*
X187652531Y-142648496D01*
X187652531Y-142648496D02*
X188652531Y-142315163D01*
X188652531Y-141981829D02*
X187652531Y-141981829D01*
X188128721Y-141981829D02*
X188128721Y-141410401D01*
X188652531Y-141410401D02*
X187652531Y-141410401D01*
X188366816Y-140981829D02*
X188366816Y-140505639D01*
X188652531Y-141077067D02*
X187652531Y-140743734D01*
X187652531Y-140743734D02*
X188652531Y-140410401D01*
X188557292Y-140077067D02*
X188604912Y-140029448D01*
X188604912Y-140029448D02*
X188652531Y-140077067D01*
X188652531Y-140077067D02*
X188604912Y-140124686D01*
X188604912Y-140124686D02*
X188557292Y-140077067D01*
X188557292Y-140077067D02*
X188652531Y-140077067D01*
X188033483Y-140077067D02*
X188081102Y-140029448D01*
X188081102Y-140029448D02*
X188128721Y-140077067D01*
X188128721Y-140077067D02*
X188081102Y-140124686D01*
X188081102Y-140124686D02*
X188033483Y-140077067D01*
X188033483Y-140077067D02*
X188128721Y-140077067D01*
X188176340Y-138648496D02*
X188652531Y-138648496D01*
X187652531Y-138981829D02*
X188176340Y-138648496D01*
X188176340Y-138648496D02*
X187652531Y-138315163D01*
X188604912Y-137600877D02*
X188652531Y-137696115D01*
X188652531Y-137696115D02*
X188652531Y-137886591D01*
X188652531Y-137886591D02*
X188604912Y-137981829D01*
X188604912Y-137981829D02*
X188509673Y-138029448D01*
X188509673Y-138029448D02*
X188128721Y-138029448D01*
X188128721Y-138029448D02*
X188033483Y-137981829D01*
X188033483Y-137981829D02*
X187985864Y-137886591D01*
X187985864Y-137886591D02*
X187985864Y-137696115D01*
X187985864Y-137696115D02*
X188033483Y-137600877D01*
X188033483Y-137600877D02*
X188128721Y-137553258D01*
X188128721Y-137553258D02*
X188223959Y-137553258D01*
X188223959Y-137553258D02*
X188319197Y-138029448D01*
X187985864Y-137267543D02*
X187985864Y-136886591D01*
X187652531Y-137124686D02*
X188509673Y-137124686D01*
X188509673Y-137124686D02*
X188604912Y-137077067D01*
X188604912Y-137077067D02*
X188652531Y-136981829D01*
X188652531Y-136981829D02*
X188652531Y-136886591D01*
X188366816Y-135838971D02*
X188366816Y-135362781D01*
X188652531Y-135934209D02*
X187652531Y-135600876D01*
X187652531Y-135600876D02*
X188652531Y-135267543D01*
X187985864Y-134934209D02*
X188652531Y-134934209D01*
X188081102Y-134934209D02*
X188033483Y-134886590D01*
X188033483Y-134886590D02*
X187985864Y-134791352D01*
X187985864Y-134791352D02*
X187985864Y-134648495D01*
X187985864Y-134648495D02*
X188033483Y-134553257D01*
X188033483Y-134553257D02*
X188128721Y-134505638D01*
X188128721Y-134505638D02*
X188652531Y-134505638D01*
X188652531Y-133886590D02*
X188604912Y-133981828D01*
X188604912Y-133981828D02*
X188557292Y-134029447D01*
X188557292Y-134029447D02*
X188462054Y-134077066D01*
X188462054Y-134077066D02*
X188176340Y-134077066D01*
X188176340Y-134077066D02*
X188081102Y-134029447D01*
X188081102Y-134029447D02*
X188033483Y-133981828D01*
X188033483Y-133981828D02*
X187985864Y-133886590D01*
X187985864Y-133886590D02*
X187985864Y-133743733D01*
X187985864Y-133743733D02*
X188033483Y-133648495D01*
X188033483Y-133648495D02*
X188081102Y-133600876D01*
X188081102Y-133600876D02*
X188176340Y-133553257D01*
X188176340Y-133553257D02*
X188462054Y-133553257D01*
X188462054Y-133553257D02*
X188557292Y-133600876D01*
X188557292Y-133600876D02*
X188604912Y-133648495D01*
X188604912Y-133648495D02*
X188652531Y-133743733D01*
X188652531Y-133743733D02*
X188652531Y-133886590D01*
X187985864Y-133267542D02*
X187985864Y-132886590D01*
X187652531Y-133124685D02*
X188509673Y-133124685D01*
X188509673Y-133124685D02*
X188604912Y-133077066D01*
X188604912Y-133077066D02*
X188652531Y-132981828D01*
X188652531Y-132981828D02*
X188652531Y-132886590D01*
X188652531Y-132553256D02*
X187652531Y-132553256D01*
X188652531Y-132124685D02*
X188128721Y-132124685D01*
X188128721Y-132124685D02*
X188033483Y-132172304D01*
X188033483Y-132172304D02*
X187985864Y-132267542D01*
X187985864Y-132267542D02*
X187985864Y-132410399D01*
X187985864Y-132410399D02*
X188033483Y-132505637D01*
X188033483Y-132505637D02*
X188081102Y-132553256D01*
X188604912Y-131267542D02*
X188652531Y-131362780D01*
X188652531Y-131362780D02*
X188652531Y-131553256D01*
X188652531Y-131553256D02*
X188604912Y-131648494D01*
X188604912Y-131648494D02*
X188509673Y-131696113D01*
X188509673Y-131696113D02*
X188128721Y-131696113D01*
X188128721Y-131696113D02*
X188033483Y-131648494D01*
X188033483Y-131648494D02*
X187985864Y-131553256D01*
X187985864Y-131553256D02*
X187985864Y-131362780D01*
X187985864Y-131362780D02*
X188033483Y-131267542D01*
X188033483Y-131267542D02*
X188128721Y-131219923D01*
X188128721Y-131219923D02*
X188223959Y-131219923D01*
X188223959Y-131219923D02*
X188319197Y-131696113D01*
X188652531Y-130791351D02*
X187985864Y-130791351D01*
X188176340Y-130791351D02*
X188081102Y-130743732D01*
X188081102Y-130743732D02*
X188033483Y-130696113D01*
X188033483Y-130696113D02*
X187985864Y-130600875D01*
X187985864Y-130600875D02*
X187985864Y-130505637D01*
X188652531Y-129410398D02*
X187652531Y-129410398D01*
X188128721Y-129410398D02*
X188128721Y-128838970D01*
X188652531Y-128838970D02*
X187652531Y-128838970D01*
X188604912Y-127981827D02*
X188652531Y-128077065D01*
X188652531Y-128077065D02*
X188652531Y-128267541D01*
X188652531Y-128267541D02*
X188604912Y-128362779D01*
X188604912Y-128362779D02*
X188509673Y-128410398D01*
X188509673Y-128410398D02*
X188128721Y-128410398D01*
X188128721Y-128410398D02*
X188033483Y-128362779D01*
X188033483Y-128362779D02*
X187985864Y-128267541D01*
X187985864Y-128267541D02*
X187985864Y-128077065D01*
X187985864Y-128077065D02*
X188033483Y-127981827D01*
X188033483Y-127981827D02*
X188128721Y-127934208D01*
X188128721Y-127934208D02*
X188223959Y-127934208D01*
X188223959Y-127934208D02*
X188319197Y-128410398D01*
X188652531Y-127077065D02*
X188128721Y-127077065D01*
X188128721Y-127077065D02*
X188033483Y-127124684D01*
X188033483Y-127124684D02*
X187985864Y-127219922D01*
X187985864Y-127219922D02*
X187985864Y-127410398D01*
X187985864Y-127410398D02*
X188033483Y-127505636D01*
X188604912Y-127077065D02*
X188652531Y-127172303D01*
X188652531Y-127172303D02*
X188652531Y-127410398D01*
X188652531Y-127410398D02*
X188604912Y-127505636D01*
X188604912Y-127505636D02*
X188509673Y-127553255D01*
X188509673Y-127553255D02*
X188414435Y-127553255D01*
X188414435Y-127553255D02*
X188319197Y-127505636D01*
X188319197Y-127505636D02*
X188271578Y-127410398D01*
X188271578Y-127410398D02*
X188271578Y-127172303D01*
X188271578Y-127172303D02*
X188223959Y-127077065D01*
X188652531Y-126172303D02*
X187652531Y-126172303D01*
X188604912Y-126172303D02*
X188652531Y-126267541D01*
X188652531Y-126267541D02*
X188652531Y-126458017D01*
X188652531Y-126458017D02*
X188604912Y-126553255D01*
X188604912Y-126553255D02*
X188557292Y-126600874D01*
X188557292Y-126600874D02*
X188462054Y-126648493D01*
X188462054Y-126648493D02*
X188176340Y-126648493D01*
X188176340Y-126648493D02*
X188081102Y-126600874D01*
X188081102Y-126600874D02*
X188033483Y-126553255D01*
X188033483Y-126553255D02*
X187985864Y-126458017D01*
X187985864Y-126458017D02*
X187985864Y-126267541D01*
X187985864Y-126267541D02*
X188033483Y-126172303D01*
X187985864Y-125696112D02*
X188985864Y-125696112D01*
X188033483Y-125696112D02*
X187985864Y-125600874D01*
X187985864Y-125600874D02*
X187985864Y-125410398D01*
X187985864Y-125410398D02*
X188033483Y-125315160D01*
X188033483Y-125315160D02*
X188081102Y-125267541D01*
X188081102Y-125267541D02*
X188176340Y-125219922D01*
X188176340Y-125219922D02*
X188462054Y-125219922D01*
X188462054Y-125219922D02*
X188557292Y-125267541D01*
X188557292Y-125267541D02*
X188604912Y-125315160D01*
X188604912Y-125315160D02*
X188652531Y-125410398D01*
X188652531Y-125410398D02*
X188652531Y-125600874D01*
X188652531Y-125600874D02*
X188604912Y-125696112D01*
X188652531Y-124791350D02*
X187652531Y-124791350D01*
X188652531Y-124362779D02*
X188128721Y-124362779D01*
X188128721Y-124362779D02*
X188033483Y-124410398D01*
X188033483Y-124410398D02*
X187985864Y-124505636D01*
X187985864Y-124505636D02*
X187985864Y-124648493D01*
X187985864Y-124648493D02*
X188033483Y-124743731D01*
X188033483Y-124743731D02*
X188081102Y-124791350D01*
X188652531Y-123743731D02*
X188604912Y-123838969D01*
X188604912Y-123838969D02*
X188557292Y-123886588D01*
X188557292Y-123886588D02*
X188462054Y-123934207D01*
X188462054Y-123934207D02*
X188176340Y-123934207D01*
X188176340Y-123934207D02*
X188081102Y-123886588D01*
X188081102Y-123886588D02*
X188033483Y-123838969D01*
X188033483Y-123838969D02*
X187985864Y-123743731D01*
X187985864Y-123743731D02*
X187985864Y-123600874D01*
X187985864Y-123600874D02*
X188033483Y-123505636D01*
X188033483Y-123505636D02*
X188081102Y-123458017D01*
X188081102Y-123458017D02*
X188176340Y-123410398D01*
X188176340Y-123410398D02*
X188462054Y-123410398D01*
X188462054Y-123410398D02*
X188557292Y-123458017D01*
X188557292Y-123458017D02*
X188604912Y-123505636D01*
X188604912Y-123505636D02*
X188652531Y-123600874D01*
X188652531Y-123600874D02*
X188652531Y-123743731D01*
X187985864Y-122981826D02*
X188652531Y-122981826D01*
X188081102Y-122981826D02*
X188033483Y-122934207D01*
X188033483Y-122934207D02*
X187985864Y-122838969D01*
X187985864Y-122838969D02*
X187985864Y-122696112D01*
X187985864Y-122696112D02*
X188033483Y-122600874D01*
X188033483Y-122600874D02*
X188128721Y-122553255D01*
X188128721Y-122553255D02*
X188652531Y-122553255D01*
X188604912Y-121696112D02*
X188652531Y-121791350D01*
X188652531Y-121791350D02*
X188652531Y-121981826D01*
X188652531Y-121981826D02*
X188604912Y-122077064D01*
X188604912Y-122077064D02*
X188509673Y-122124683D01*
X188509673Y-122124683D02*
X188128721Y-122124683D01*
X188128721Y-122124683D02*
X188033483Y-122077064D01*
X188033483Y-122077064D02*
X187985864Y-121981826D01*
X187985864Y-121981826D02*
X187985864Y-121791350D01*
X187985864Y-121791350D02*
X188033483Y-121696112D01*
X188033483Y-121696112D02*
X188128721Y-121648493D01*
X188128721Y-121648493D02*
X188223959Y-121648493D01*
X188223959Y-121648493D02*
X188319197Y-122124683D01*
X188366816Y-120505635D02*
X188366816Y-120029445D01*
X188652531Y-120600873D02*
X187652531Y-120267540D01*
X187652531Y-120267540D02*
X188652531Y-119934207D01*
X188652531Y-119600873D02*
X187985864Y-119600873D01*
X188081102Y-119600873D02*
X188033483Y-119553254D01*
X188033483Y-119553254D02*
X187985864Y-119458016D01*
X187985864Y-119458016D02*
X187985864Y-119315159D01*
X187985864Y-119315159D02*
X188033483Y-119219921D01*
X188033483Y-119219921D02*
X188128721Y-119172302D01*
X188128721Y-119172302D02*
X188652531Y-119172302D01*
X188128721Y-119172302D02*
X188033483Y-119124683D01*
X188033483Y-119124683D02*
X187985864Y-119029445D01*
X187985864Y-119029445D02*
X187985864Y-118886588D01*
X187985864Y-118886588D02*
X188033483Y-118791349D01*
X188033483Y-118791349D02*
X188128721Y-118743730D01*
X188128721Y-118743730D02*
X188652531Y-118743730D01*
X187985864Y-118267540D02*
X188985864Y-118267540D01*
X188033483Y-118267540D02*
X187985864Y-118172302D01*
X187985864Y-118172302D02*
X187985864Y-117981826D01*
X187985864Y-117981826D02*
X188033483Y-117886588D01*
X188033483Y-117886588D02*
X188081102Y-117838969D01*
X188081102Y-117838969D02*
X188176340Y-117791350D01*
X188176340Y-117791350D02*
X188462054Y-117791350D01*
X188462054Y-117791350D02*
X188557292Y-117838969D01*
X188557292Y-117838969D02*
X188604912Y-117886588D01*
X188604912Y-117886588D02*
X188652531Y-117981826D01*
X188652531Y-117981826D02*
X188652531Y-118172302D01*
X188652531Y-118172302D02*
X188604912Y-118267540D01*
X188652531Y-117219921D02*
X188604912Y-117315159D01*
X188604912Y-117315159D02*
X188509673Y-117362778D01*
X188509673Y-117362778D02*
X187652531Y-117362778D01*
X188652531Y-116838968D02*
X187985864Y-116838968D01*
X187652531Y-116838968D02*
X187700150Y-116886587D01*
X187700150Y-116886587D02*
X187747769Y-116838968D01*
X187747769Y-116838968D02*
X187700150Y-116791349D01*
X187700150Y-116791349D02*
X187652531Y-116838968D01*
X187652531Y-116838968D02*
X187747769Y-116838968D01*
X187985864Y-116505635D02*
X187985864Y-116124683D01*
X188652531Y-116362778D02*
X187795388Y-116362778D01*
X187795388Y-116362778D02*
X187700150Y-116315159D01*
X187700150Y-116315159D02*
X187652531Y-116219921D01*
X187652531Y-116219921D02*
X187652531Y-116124683D01*
X188652531Y-115791349D02*
X187985864Y-115791349D01*
X187652531Y-115791349D02*
X187700150Y-115838968D01*
X187700150Y-115838968D02*
X187747769Y-115791349D01*
X187747769Y-115791349D02*
X187700150Y-115743730D01*
X187700150Y-115743730D02*
X187652531Y-115791349D01*
X187652531Y-115791349D02*
X187747769Y-115791349D01*
X188604912Y-114934207D02*
X188652531Y-115029445D01*
X188652531Y-115029445D02*
X188652531Y-115219921D01*
X188652531Y-115219921D02*
X188604912Y-115315159D01*
X188604912Y-115315159D02*
X188509673Y-115362778D01*
X188509673Y-115362778D02*
X188128721Y-115362778D01*
X188128721Y-115362778D02*
X188033483Y-115315159D01*
X188033483Y-115315159D02*
X187985864Y-115219921D01*
X187985864Y-115219921D02*
X187985864Y-115029445D01*
X187985864Y-115029445D02*
X188033483Y-114934207D01*
X188033483Y-114934207D02*
X188128721Y-114886588D01*
X188128721Y-114886588D02*
X188223959Y-114886588D01*
X188223959Y-114886588D02*
X188319197Y-115362778D01*
X188652531Y-114458016D02*
X187985864Y-114458016D01*
X188176340Y-114458016D02*
X188081102Y-114410397D01*
X188081102Y-114410397D02*
X188033483Y-114362778D01*
X188033483Y-114362778D02*
X187985864Y-114267540D01*
X187985864Y-114267540D02*
X187985864Y-114172302D01*
X189357713Y-143743734D02*
X189310094Y-143696115D01*
X189310094Y-143696115D02*
X189262475Y-143600877D01*
X189262475Y-143600877D02*
X189262475Y-143362782D01*
X189262475Y-143362782D02*
X189310094Y-143267544D01*
X189310094Y-143267544D02*
X189357713Y-143219925D01*
X189357713Y-143219925D02*
X189452951Y-143172306D01*
X189452951Y-143172306D02*
X189548189Y-143172306D01*
X189548189Y-143172306D02*
X189691046Y-143219925D01*
X189691046Y-143219925D02*
X190262475Y-143791353D01*
X190262475Y-143791353D02*
X190262475Y-143172306D01*
X189262475Y-142553258D02*
X189262475Y-142458020D01*
X189262475Y-142458020D02*
X189310094Y-142362782D01*
X189310094Y-142362782D02*
X189357713Y-142315163D01*
X189357713Y-142315163D02*
X189452951Y-142267544D01*
X189452951Y-142267544D02*
X189643427Y-142219925D01*
X189643427Y-142219925D02*
X189881522Y-142219925D01*
X189881522Y-142219925D02*
X190071998Y-142267544D01*
X190071998Y-142267544D02*
X190167236Y-142315163D01*
X190167236Y-142315163D02*
X190214856Y-142362782D01*
X190214856Y-142362782D02*
X190262475Y-142458020D01*
X190262475Y-142458020D02*
X190262475Y-142553258D01*
X190262475Y-142553258D02*
X190214856Y-142648496D01*
X190214856Y-142648496D02*
X190167236Y-142696115D01*
X190167236Y-142696115D02*
X190071998Y-142743734D01*
X190071998Y-142743734D02*
X189881522Y-142791353D01*
X189881522Y-142791353D02*
X189643427Y-142791353D01*
X189643427Y-142791353D02*
X189452951Y-142743734D01*
X189452951Y-142743734D02*
X189357713Y-142696115D01*
X189357713Y-142696115D02*
X189310094Y-142648496D01*
X189310094Y-142648496D02*
X189262475Y-142553258D01*
X189357713Y-141838972D02*
X189310094Y-141791353D01*
X189310094Y-141791353D02*
X189262475Y-141696115D01*
X189262475Y-141696115D02*
X189262475Y-141458020D01*
X189262475Y-141458020D02*
X189310094Y-141362782D01*
X189310094Y-141362782D02*
X189357713Y-141315163D01*
X189357713Y-141315163D02*
X189452951Y-141267544D01*
X189452951Y-141267544D02*
X189548189Y-141267544D01*
X189548189Y-141267544D02*
X189691046Y-141315163D01*
X189691046Y-141315163D02*
X190262475Y-141886591D01*
X190262475Y-141886591D02*
X190262475Y-141267544D01*
X189262475Y-140362782D02*
X189262475Y-140838972D01*
X189262475Y-140838972D02*
X189738665Y-140886591D01*
X189738665Y-140886591D02*
X189691046Y-140838972D01*
X189691046Y-140838972D02*
X189643427Y-140743734D01*
X189643427Y-140743734D02*
X189643427Y-140505639D01*
X189643427Y-140505639D02*
X189691046Y-140410401D01*
X189691046Y-140410401D02*
X189738665Y-140362782D01*
X189738665Y-140362782D02*
X189833903Y-140315163D01*
X189833903Y-140315163D02*
X190071998Y-140315163D01*
X190071998Y-140315163D02*
X190167236Y-140362782D01*
X190167236Y-140362782D02*
X190214856Y-140410401D01*
X190214856Y-140410401D02*
X190262475Y-140505639D01*
X190262475Y-140505639D02*
X190262475Y-140743734D01*
X190262475Y-140743734D02*
X190214856Y-140838972D01*
X190214856Y-140838972D02*
X190167236Y-140886591D01*
X190595808Y-137362781D02*
X189167236Y-137362781D01*
X190214856Y-135172304D02*
X190262475Y-135029447D01*
X190262475Y-135029447D02*
X190262475Y-134791352D01*
X190262475Y-134791352D02*
X190214856Y-134696114D01*
X190214856Y-134696114D02*
X190167236Y-134648495D01*
X190167236Y-134648495D02*
X190071998Y-134600876D01*
X190071998Y-134600876D02*
X189976760Y-134600876D01*
X189976760Y-134600876D02*
X189881522Y-134648495D01*
X189881522Y-134648495D02*
X189833903Y-134696114D01*
X189833903Y-134696114D02*
X189786284Y-134791352D01*
X189786284Y-134791352D02*
X189738665Y-134981828D01*
X189738665Y-134981828D02*
X189691046Y-135077066D01*
X189691046Y-135077066D02*
X189643427Y-135124685D01*
X189643427Y-135124685D02*
X189548189Y-135172304D01*
X189548189Y-135172304D02*
X189452951Y-135172304D01*
X189452951Y-135172304D02*
X189357713Y-135124685D01*
X189357713Y-135124685D02*
X189310094Y-135077066D01*
X189310094Y-135077066D02*
X189262475Y-134981828D01*
X189262475Y-134981828D02*
X189262475Y-134743733D01*
X189262475Y-134743733D02*
X189310094Y-134600876D01*
X189595808Y-134315161D02*
X189595808Y-133934209D01*
X189262475Y-134172304D02*
X190119617Y-134172304D01*
X190119617Y-134172304D02*
X190214856Y-134124685D01*
X190214856Y-134124685D02*
X190262475Y-134029447D01*
X190262475Y-134029447D02*
X190262475Y-133934209D01*
X190214856Y-133219923D02*
X190262475Y-133315161D01*
X190262475Y-133315161D02*
X190262475Y-133505637D01*
X190262475Y-133505637D02*
X190214856Y-133600875D01*
X190214856Y-133600875D02*
X190119617Y-133648494D01*
X190119617Y-133648494D02*
X189738665Y-133648494D01*
X189738665Y-133648494D02*
X189643427Y-133600875D01*
X189643427Y-133600875D02*
X189595808Y-133505637D01*
X189595808Y-133505637D02*
X189595808Y-133315161D01*
X189595808Y-133315161D02*
X189643427Y-133219923D01*
X189643427Y-133219923D02*
X189738665Y-133172304D01*
X189738665Y-133172304D02*
X189833903Y-133172304D01*
X189833903Y-133172304D02*
X189929141Y-133648494D01*
X189595808Y-132886589D02*
X189595808Y-132505637D01*
X190262475Y-132743732D02*
X189405332Y-132743732D01*
X189405332Y-132743732D02*
X189310094Y-132696113D01*
X189310094Y-132696113D02*
X189262475Y-132600875D01*
X189262475Y-132600875D02*
X189262475Y-132505637D01*
X190262475Y-131743732D02*
X189738665Y-131743732D01*
X189738665Y-131743732D02*
X189643427Y-131791351D01*
X189643427Y-131791351D02*
X189595808Y-131886589D01*
X189595808Y-131886589D02*
X189595808Y-132077065D01*
X189595808Y-132077065D02*
X189643427Y-132172303D01*
X190214856Y-131743732D02*
X190262475Y-131838970D01*
X190262475Y-131838970D02*
X190262475Y-132077065D01*
X190262475Y-132077065D02*
X190214856Y-132172303D01*
X190214856Y-132172303D02*
X190119617Y-132219922D01*
X190119617Y-132219922D02*
X190024379Y-132219922D01*
X190024379Y-132219922D02*
X189929141Y-132172303D01*
X189929141Y-132172303D02*
X189881522Y-132077065D01*
X189881522Y-132077065D02*
X189881522Y-131838970D01*
X189881522Y-131838970D02*
X189833903Y-131743732D01*
X189595808Y-131267541D02*
X190262475Y-131267541D01*
X189691046Y-131267541D02*
X189643427Y-131219922D01*
X189643427Y-131219922D02*
X189595808Y-131124684D01*
X189595808Y-131124684D02*
X189595808Y-130981827D01*
X189595808Y-130981827D02*
X189643427Y-130886589D01*
X189643427Y-130886589D02*
X189738665Y-130838970D01*
X189738665Y-130838970D02*
X190262475Y-130838970D01*
X190262475Y-130219922D02*
X190214856Y-130315160D01*
X190214856Y-130315160D02*
X190167236Y-130362779D01*
X190167236Y-130362779D02*
X190071998Y-130410398D01*
X190071998Y-130410398D02*
X189786284Y-130410398D01*
X189786284Y-130410398D02*
X189691046Y-130362779D01*
X189691046Y-130362779D02*
X189643427Y-130315160D01*
X189643427Y-130315160D02*
X189595808Y-130219922D01*
X189595808Y-130219922D02*
X189595808Y-130077065D01*
X189595808Y-130077065D02*
X189643427Y-129981827D01*
X189643427Y-129981827D02*
X189691046Y-129934208D01*
X189691046Y-129934208D02*
X189786284Y-129886589D01*
X189786284Y-129886589D02*
X190071998Y-129886589D01*
X190071998Y-129886589D02*
X190167236Y-129934208D01*
X190167236Y-129934208D02*
X190214856Y-129981827D01*
X190214856Y-129981827D02*
X190262475Y-130077065D01*
X190262475Y-130077065D02*
X190262475Y-130219922D01*
X190262475Y-128696112D02*
X189262475Y-128696112D01*
X189262475Y-128696112D02*
X189262475Y-128315160D01*
X189262475Y-128315160D02*
X189310094Y-128219922D01*
X189310094Y-128219922D02*
X189357713Y-128172303D01*
X189357713Y-128172303D02*
X189452951Y-128124684D01*
X189452951Y-128124684D02*
X189595808Y-128124684D01*
X189595808Y-128124684D02*
X189691046Y-128172303D01*
X189691046Y-128172303D02*
X189738665Y-128219922D01*
X189738665Y-128219922D02*
X189786284Y-128315160D01*
X189786284Y-128315160D02*
X189786284Y-128696112D01*
X190262475Y-127553255D02*
X190214856Y-127648493D01*
X190214856Y-127648493D02*
X190167236Y-127696112D01*
X190167236Y-127696112D02*
X190071998Y-127743731D01*
X190071998Y-127743731D02*
X189786284Y-127743731D01*
X189786284Y-127743731D02*
X189691046Y-127696112D01*
X189691046Y-127696112D02*
X189643427Y-127648493D01*
X189643427Y-127648493D02*
X189595808Y-127553255D01*
X189595808Y-127553255D02*
X189595808Y-127410398D01*
X189595808Y-127410398D02*
X189643427Y-127315160D01*
X189643427Y-127315160D02*
X189691046Y-127267541D01*
X189691046Y-127267541D02*
X189786284Y-127219922D01*
X189786284Y-127219922D02*
X190071998Y-127219922D01*
X190071998Y-127219922D02*
X190167236Y-127267541D01*
X190167236Y-127267541D02*
X190214856Y-127315160D01*
X190214856Y-127315160D02*
X190262475Y-127410398D01*
X190262475Y-127410398D02*
X190262475Y-127553255D01*
X190262475Y-126648493D02*
X190214856Y-126743731D01*
X190214856Y-126743731D02*
X190119617Y-126791350D01*
X190119617Y-126791350D02*
X189262475Y-126791350D01*
X190262475Y-126124683D02*
X190214856Y-126219921D01*
X190214856Y-126219921D02*
X190119617Y-126267540D01*
X190119617Y-126267540D02*
X189262475Y-126267540D01*
X190262475Y-125315159D02*
X189738665Y-125315159D01*
X189738665Y-125315159D02*
X189643427Y-125362778D01*
X189643427Y-125362778D02*
X189595808Y-125458016D01*
X189595808Y-125458016D02*
X189595808Y-125648492D01*
X189595808Y-125648492D02*
X189643427Y-125743730D01*
X190214856Y-125315159D02*
X190262475Y-125410397D01*
X190262475Y-125410397D02*
X190262475Y-125648492D01*
X190262475Y-125648492D02*
X190214856Y-125743730D01*
X190214856Y-125743730D02*
X190119617Y-125791349D01*
X190119617Y-125791349D02*
X190024379Y-125791349D01*
X190024379Y-125791349D02*
X189929141Y-125743730D01*
X189929141Y-125743730D02*
X189881522Y-125648492D01*
X189881522Y-125648492D02*
X189881522Y-125410397D01*
X189881522Y-125410397D02*
X189833903Y-125315159D01*
X189595808Y-124934206D02*
X189595808Y-124410397D01*
X189595808Y-124410397D02*
X190262475Y-124934206D01*
X190262475Y-124934206D02*
X190262475Y-124410397D01*
X189595808Y-124124682D02*
X189595808Y-123600873D01*
X189595808Y-123600873D02*
X190262475Y-124124682D01*
X190262475Y-124124682D02*
X190262475Y-123600873D01*
X190262475Y-123077063D02*
X190214856Y-123172301D01*
X190214856Y-123172301D02*
X190167236Y-123219920D01*
X190167236Y-123219920D02*
X190071998Y-123267539D01*
X190071998Y-123267539D02*
X189786284Y-123267539D01*
X189786284Y-123267539D02*
X189691046Y-123219920D01*
X189691046Y-123219920D02*
X189643427Y-123172301D01*
X189643427Y-123172301D02*
X189595808Y-123077063D01*
X189595808Y-123077063D02*
X189595808Y-122934206D01*
X189595808Y-122934206D02*
X189643427Y-122838968D01*
X189643427Y-122838968D02*
X189691046Y-122791349D01*
X189691046Y-122791349D02*
X189786284Y-122743730D01*
X189786284Y-122743730D02*
X190071998Y-122743730D01*
X190071998Y-122743730D02*
X190167236Y-122791349D01*
X190167236Y-122791349D02*
X190214856Y-122838968D01*
X190214856Y-122838968D02*
X190262475Y-122934206D01*
X190262475Y-122934206D02*
X190262475Y-123077063D01*
X189595808Y-122315158D02*
X190262475Y-122315158D01*
X189691046Y-122315158D02*
X189643427Y-122267539D01*
X189643427Y-122267539D02*
X189595808Y-122172301D01*
X189595808Y-122172301D02*
X189595808Y-122029444D01*
X189595808Y-122029444D02*
X189643427Y-121934206D01*
X189643427Y-121934206D02*
X189738665Y-121886587D01*
X189738665Y-121886587D02*
X190262475Y-121886587D01*
X190595808Y-118886586D02*
X189167236Y-118886586D01*
X189262475Y-116791347D02*
X190262475Y-116458014D01*
X190262475Y-116458014D02*
X189262475Y-116124681D01*
X190214856Y-115410395D02*
X190262475Y-115505633D01*
X190262475Y-115505633D02*
X190262475Y-115696109D01*
X190262475Y-115696109D02*
X190214856Y-115791347D01*
X190214856Y-115791347D02*
X190119617Y-115838966D01*
X190119617Y-115838966D02*
X189738665Y-115838966D01*
X189738665Y-115838966D02*
X189643427Y-115791347D01*
X189643427Y-115791347D02*
X189595808Y-115696109D01*
X189595808Y-115696109D02*
X189595808Y-115505633D01*
X189595808Y-115505633D02*
X189643427Y-115410395D01*
X189643427Y-115410395D02*
X189738665Y-115362776D01*
X189738665Y-115362776D02*
X189833903Y-115362776D01*
X189833903Y-115362776D02*
X189929141Y-115838966D01*
X190262475Y-114934204D02*
X189595808Y-114934204D01*
X189786284Y-114934204D02*
X189691046Y-114886585D01*
X189691046Y-114886585D02*
X189643427Y-114838966D01*
X189643427Y-114838966D02*
X189595808Y-114743728D01*
X189595808Y-114743728D02*
X189595808Y-114648490D01*
X190214856Y-114362775D02*
X190262475Y-114267537D01*
X190262475Y-114267537D02*
X190262475Y-114077061D01*
X190262475Y-114077061D02*
X190214856Y-113981823D01*
X190214856Y-113981823D02*
X190119617Y-113934204D01*
X190119617Y-113934204D02*
X190071998Y-113934204D01*
X190071998Y-113934204D02*
X189976760Y-113981823D01*
X189976760Y-113981823D02*
X189929141Y-114077061D01*
X189929141Y-114077061D02*
X189929141Y-114219918D01*
X189929141Y-114219918D02*
X189881522Y-114315156D01*
X189881522Y-114315156D02*
X189786284Y-114362775D01*
X189786284Y-114362775D02*
X189738665Y-114362775D01*
X189738665Y-114362775D02*
X189643427Y-114315156D01*
X189643427Y-114315156D02*
X189595808Y-114219918D01*
X189595808Y-114219918D02*
X189595808Y-114077061D01*
X189595808Y-114077061D02*
X189643427Y-113981823D01*
X190262475Y-113505632D02*
X189595808Y-113505632D01*
X189262475Y-113505632D02*
X189310094Y-113553251D01*
X189310094Y-113553251D02*
X189357713Y-113505632D01*
X189357713Y-113505632D02*
X189310094Y-113458013D01*
X189310094Y-113458013D02*
X189262475Y-113505632D01*
X189262475Y-113505632D02*
X189357713Y-113505632D01*
X190262475Y-112886585D02*
X190214856Y-112981823D01*
X190214856Y-112981823D02*
X190167236Y-113029442D01*
X190167236Y-113029442D02*
X190071998Y-113077061D01*
X190071998Y-113077061D02*
X189786284Y-113077061D01*
X189786284Y-113077061D02*
X189691046Y-113029442D01*
X189691046Y-113029442D02*
X189643427Y-112981823D01*
X189643427Y-112981823D02*
X189595808Y-112886585D01*
X189595808Y-112886585D02*
X189595808Y-112743728D01*
X189595808Y-112743728D02*
X189643427Y-112648490D01*
X189643427Y-112648490D02*
X189691046Y-112600871D01*
X189691046Y-112600871D02*
X189786284Y-112553252D01*
X189786284Y-112553252D02*
X190071998Y-112553252D01*
X190071998Y-112553252D02*
X190167236Y-112600871D01*
X190167236Y-112600871D02*
X190214856Y-112648490D01*
X190214856Y-112648490D02*
X190262475Y-112743728D01*
X190262475Y-112743728D02*
X190262475Y-112886585D01*
X189595808Y-112124680D02*
X190262475Y-112124680D01*
X189691046Y-112124680D02*
X189643427Y-112077061D01*
X189643427Y-112077061D02*
X189595808Y-111981823D01*
X189595808Y-111981823D02*
X189595808Y-111838966D01*
X189595808Y-111838966D02*
X189643427Y-111743728D01*
X189643427Y-111743728D02*
X189738665Y-111696109D01*
X189738665Y-111696109D02*
X190262475Y-111696109D01*
X190262475Y-109934204D02*
X190262475Y-110505632D01*
X190262475Y-110219918D02*
X189262475Y-110219918D01*
X189262475Y-110219918D02*
X189405332Y-110315156D01*
X189405332Y-110315156D02*
X189500570Y-110410394D01*
X189500570Y-110410394D02*
X189548189Y-110505632D01*
X190167236Y-109505632D02*
X190214856Y-109458013D01*
X190214856Y-109458013D02*
X190262475Y-109505632D01*
X190262475Y-109505632D02*
X190214856Y-109553251D01*
X190214856Y-109553251D02*
X190167236Y-109505632D01*
X190167236Y-109505632D02*
X190262475Y-109505632D01*
X190262475Y-108505633D02*
X190262475Y-109077061D01*
X190262475Y-108791347D02*
X189262475Y-108791347D01*
X189262475Y-108791347D02*
X189405332Y-108886585D01*
X189405332Y-108886585D02*
X189500570Y-108981823D01*
X189500570Y-108981823D02*
X189548189Y-109077061D01*
X191872419Y-143696115D02*
X190872419Y-143696115D01*
X191872419Y-143267544D02*
X191348609Y-143267544D01*
X191348609Y-143267544D02*
X191253371Y-143315163D01*
X191253371Y-143315163D02*
X191205752Y-143410401D01*
X191205752Y-143410401D02*
X191205752Y-143553258D01*
X191205752Y-143553258D02*
X191253371Y-143648496D01*
X191253371Y-143648496D02*
X191300990Y-143696115D01*
X191205752Y-142934210D02*
X191205752Y-142553258D01*
X190872419Y-142791353D02*
X191729561Y-142791353D01*
X191729561Y-142791353D02*
X191824800Y-142743734D01*
X191824800Y-142743734D02*
X191872419Y-142648496D01*
X191872419Y-142648496D02*
X191872419Y-142553258D01*
X191205752Y-142362781D02*
X191205752Y-141981829D01*
X190872419Y-142219924D02*
X191729561Y-142219924D01*
X191729561Y-142219924D02*
X191824800Y-142172305D01*
X191824800Y-142172305D02*
X191872419Y-142077067D01*
X191872419Y-142077067D02*
X191872419Y-141981829D01*
X191205752Y-141648495D02*
X192205752Y-141648495D01*
X191253371Y-141648495D02*
X191205752Y-141553257D01*
X191205752Y-141553257D02*
X191205752Y-141362781D01*
X191205752Y-141362781D02*
X191253371Y-141267543D01*
X191253371Y-141267543D02*
X191300990Y-141219924D01*
X191300990Y-141219924D02*
X191396228Y-141172305D01*
X191396228Y-141172305D02*
X191681942Y-141172305D01*
X191681942Y-141172305D02*
X191777180Y-141219924D01*
X191777180Y-141219924D02*
X191824800Y-141267543D01*
X191824800Y-141267543D02*
X191872419Y-141362781D01*
X191872419Y-141362781D02*
X191872419Y-141553257D01*
X191872419Y-141553257D02*
X191824800Y-141648495D01*
X191824800Y-140791352D02*
X191872419Y-140696114D01*
X191872419Y-140696114D02*
X191872419Y-140505638D01*
X191872419Y-140505638D02*
X191824800Y-140410400D01*
X191824800Y-140410400D02*
X191729561Y-140362781D01*
X191729561Y-140362781D02*
X191681942Y-140362781D01*
X191681942Y-140362781D02*
X191586704Y-140410400D01*
X191586704Y-140410400D02*
X191539085Y-140505638D01*
X191539085Y-140505638D02*
X191539085Y-140648495D01*
X191539085Y-140648495D02*
X191491466Y-140743733D01*
X191491466Y-140743733D02*
X191396228Y-140791352D01*
X191396228Y-140791352D02*
X191348609Y-140791352D01*
X191348609Y-140791352D02*
X191253371Y-140743733D01*
X191253371Y-140743733D02*
X191205752Y-140648495D01*
X191205752Y-140648495D02*
X191205752Y-140505638D01*
X191205752Y-140505638D02*
X191253371Y-140410400D01*
X191777180Y-139934209D02*
X191824800Y-139886590D01*
X191824800Y-139886590D02*
X191872419Y-139934209D01*
X191872419Y-139934209D02*
X191824800Y-139981828D01*
X191824800Y-139981828D02*
X191777180Y-139934209D01*
X191777180Y-139934209D02*
X191872419Y-139934209D01*
X191253371Y-139934209D02*
X191300990Y-139886590D01*
X191300990Y-139886590D02*
X191348609Y-139934209D01*
X191348609Y-139934209D02*
X191300990Y-139981828D01*
X191300990Y-139981828D02*
X191253371Y-139934209D01*
X191253371Y-139934209D02*
X191348609Y-139934209D01*
X190824800Y-138743734D02*
X192110514Y-139600876D01*
X190824800Y-137696115D02*
X192110514Y-138553257D01*
X191205752Y-136934210D02*
X192015276Y-136934210D01*
X192015276Y-136934210D02*
X192110514Y-136981829D01*
X192110514Y-136981829D02*
X192158133Y-137029448D01*
X192158133Y-137029448D02*
X192205752Y-137124686D01*
X192205752Y-137124686D02*
X192205752Y-137267543D01*
X192205752Y-137267543D02*
X192158133Y-137362781D01*
X191824800Y-136934210D02*
X191872419Y-137029448D01*
X191872419Y-137029448D02*
X191872419Y-137219924D01*
X191872419Y-137219924D02*
X191824800Y-137315162D01*
X191824800Y-137315162D02*
X191777180Y-137362781D01*
X191777180Y-137362781D02*
X191681942Y-137410400D01*
X191681942Y-137410400D02*
X191396228Y-137410400D01*
X191396228Y-137410400D02*
X191300990Y-137362781D01*
X191300990Y-137362781D02*
X191253371Y-137315162D01*
X191253371Y-137315162D02*
X191205752Y-137219924D01*
X191205752Y-137219924D02*
X191205752Y-137029448D01*
X191205752Y-137029448D02*
X191253371Y-136934210D01*
X191872419Y-136458019D02*
X191205752Y-136458019D01*
X190872419Y-136458019D02*
X190920038Y-136505638D01*
X190920038Y-136505638D02*
X190967657Y-136458019D01*
X190967657Y-136458019D02*
X190920038Y-136410400D01*
X190920038Y-136410400D02*
X190872419Y-136458019D01*
X190872419Y-136458019D02*
X190967657Y-136458019D01*
X191205752Y-136124686D02*
X191205752Y-135743734D01*
X190872419Y-135981829D02*
X191729561Y-135981829D01*
X191729561Y-135981829D02*
X191824800Y-135934210D01*
X191824800Y-135934210D02*
X191872419Y-135838972D01*
X191872419Y-135838972D02*
X191872419Y-135743734D01*
X191872419Y-135410400D02*
X190872419Y-135410400D01*
X191872419Y-134981829D02*
X191348609Y-134981829D01*
X191348609Y-134981829D02*
X191253371Y-135029448D01*
X191253371Y-135029448D02*
X191205752Y-135124686D01*
X191205752Y-135124686D02*
X191205752Y-135267543D01*
X191205752Y-135267543D02*
X191253371Y-135362781D01*
X191253371Y-135362781D02*
X191300990Y-135410400D01*
X191205752Y-134077067D02*
X191872419Y-134077067D01*
X191205752Y-134505638D02*
X191729561Y-134505638D01*
X191729561Y-134505638D02*
X191824800Y-134458019D01*
X191824800Y-134458019D02*
X191872419Y-134362781D01*
X191872419Y-134362781D02*
X191872419Y-134219924D01*
X191872419Y-134219924D02*
X191824800Y-134124686D01*
X191824800Y-134124686D02*
X191777180Y-134077067D01*
X191872419Y-133600876D02*
X190872419Y-133600876D01*
X191253371Y-133600876D02*
X191205752Y-133505638D01*
X191205752Y-133505638D02*
X191205752Y-133315162D01*
X191205752Y-133315162D02*
X191253371Y-133219924D01*
X191253371Y-133219924D02*
X191300990Y-133172305D01*
X191300990Y-133172305D02*
X191396228Y-133124686D01*
X191396228Y-133124686D02*
X191681942Y-133124686D01*
X191681942Y-133124686D02*
X191777180Y-133172305D01*
X191777180Y-133172305D02*
X191824800Y-133219924D01*
X191824800Y-133219924D02*
X191872419Y-133315162D01*
X191872419Y-133315162D02*
X191872419Y-133505638D01*
X191872419Y-133505638D02*
X191824800Y-133600876D01*
X191777180Y-132696114D02*
X191824800Y-132648495D01*
X191824800Y-132648495D02*
X191872419Y-132696114D01*
X191872419Y-132696114D02*
X191824800Y-132743733D01*
X191824800Y-132743733D02*
X191777180Y-132696114D01*
X191777180Y-132696114D02*
X191872419Y-132696114D01*
X191824800Y-131791353D02*
X191872419Y-131886591D01*
X191872419Y-131886591D02*
X191872419Y-132077067D01*
X191872419Y-132077067D02*
X191824800Y-132172305D01*
X191824800Y-132172305D02*
X191777180Y-132219924D01*
X191777180Y-132219924D02*
X191681942Y-132267543D01*
X191681942Y-132267543D02*
X191396228Y-132267543D01*
X191396228Y-132267543D02*
X191300990Y-132219924D01*
X191300990Y-132219924D02*
X191253371Y-132172305D01*
X191253371Y-132172305D02*
X191205752Y-132077067D01*
X191205752Y-132077067D02*
X191205752Y-131886591D01*
X191205752Y-131886591D02*
X191253371Y-131791353D01*
X191872419Y-131219924D02*
X191824800Y-131315162D01*
X191824800Y-131315162D02*
X191777180Y-131362781D01*
X191777180Y-131362781D02*
X191681942Y-131410400D01*
X191681942Y-131410400D02*
X191396228Y-131410400D01*
X191396228Y-131410400D02*
X191300990Y-131362781D01*
X191300990Y-131362781D02*
X191253371Y-131315162D01*
X191253371Y-131315162D02*
X191205752Y-131219924D01*
X191205752Y-131219924D02*
X191205752Y-131077067D01*
X191205752Y-131077067D02*
X191253371Y-130981829D01*
X191253371Y-130981829D02*
X191300990Y-130934210D01*
X191300990Y-130934210D02*
X191396228Y-130886591D01*
X191396228Y-130886591D02*
X191681942Y-130886591D01*
X191681942Y-130886591D02*
X191777180Y-130934210D01*
X191777180Y-130934210D02*
X191824800Y-130981829D01*
X191824800Y-130981829D02*
X191872419Y-131077067D01*
X191872419Y-131077067D02*
X191872419Y-131219924D01*
X191872419Y-130458019D02*
X191205752Y-130458019D01*
X191300990Y-130458019D02*
X191253371Y-130410400D01*
X191253371Y-130410400D02*
X191205752Y-130315162D01*
X191205752Y-130315162D02*
X191205752Y-130172305D01*
X191205752Y-130172305D02*
X191253371Y-130077067D01*
X191253371Y-130077067D02*
X191348609Y-130029448D01*
X191348609Y-130029448D02*
X191872419Y-130029448D01*
X191348609Y-130029448D02*
X191253371Y-129981829D01*
X191253371Y-129981829D02*
X191205752Y-129886591D01*
X191205752Y-129886591D02*
X191205752Y-129743734D01*
X191205752Y-129743734D02*
X191253371Y-129648495D01*
X191253371Y-129648495D02*
X191348609Y-129600876D01*
X191348609Y-129600876D02*
X191872419Y-129600876D01*
X190824800Y-128410401D02*
X192110514Y-129267543D01*
X191824800Y-128124686D02*
X191872419Y-127981829D01*
X191872419Y-127981829D02*
X191872419Y-127743734D01*
X191872419Y-127743734D02*
X191824800Y-127648496D01*
X191824800Y-127648496D02*
X191777180Y-127600877D01*
X191777180Y-127600877D02*
X191681942Y-127553258D01*
X191681942Y-127553258D02*
X191586704Y-127553258D01*
X191586704Y-127553258D02*
X191491466Y-127600877D01*
X191491466Y-127600877D02*
X191443847Y-127648496D01*
X191443847Y-127648496D02*
X191396228Y-127743734D01*
X191396228Y-127743734D02*
X191348609Y-127934210D01*
X191348609Y-127934210D02*
X191300990Y-128029448D01*
X191300990Y-128029448D02*
X191253371Y-128077067D01*
X191253371Y-128077067D02*
X191158133Y-128124686D01*
X191158133Y-128124686D02*
X191062895Y-128124686D01*
X191062895Y-128124686D02*
X190967657Y-128077067D01*
X190967657Y-128077067D02*
X190920038Y-128029448D01*
X190920038Y-128029448D02*
X190872419Y-127934210D01*
X190872419Y-127934210D02*
X190872419Y-127696115D01*
X190872419Y-127696115D02*
X190920038Y-127553258D01*
X191205752Y-127267543D02*
X191205752Y-126886591D01*
X190872419Y-127124686D02*
X191729561Y-127124686D01*
X191729561Y-127124686D02*
X191824800Y-127077067D01*
X191824800Y-127077067D02*
X191872419Y-126981829D01*
X191872419Y-126981829D02*
X191872419Y-126886591D01*
X191824800Y-126172305D02*
X191872419Y-126267543D01*
X191872419Y-126267543D02*
X191872419Y-126458019D01*
X191872419Y-126458019D02*
X191824800Y-126553257D01*
X191824800Y-126553257D02*
X191729561Y-126600876D01*
X191729561Y-126600876D02*
X191348609Y-126600876D01*
X191348609Y-126600876D02*
X191253371Y-126553257D01*
X191253371Y-126553257D02*
X191205752Y-126458019D01*
X191205752Y-126458019D02*
X191205752Y-126267543D01*
X191205752Y-126267543D02*
X191253371Y-126172305D01*
X191253371Y-126172305D02*
X191348609Y-126124686D01*
X191348609Y-126124686D02*
X191443847Y-126124686D01*
X191443847Y-126124686D02*
X191539085Y-126600876D01*
X191205752Y-125838971D02*
X191205752Y-125458019D01*
X191872419Y-125696114D02*
X191015276Y-125696114D01*
X191015276Y-125696114D02*
X190920038Y-125648495D01*
X190920038Y-125648495D02*
X190872419Y-125553257D01*
X190872419Y-125553257D02*
X190872419Y-125458019D01*
X191872419Y-124696114D02*
X191348609Y-124696114D01*
X191348609Y-124696114D02*
X191253371Y-124743733D01*
X191253371Y-124743733D02*
X191205752Y-124838971D01*
X191205752Y-124838971D02*
X191205752Y-125029447D01*
X191205752Y-125029447D02*
X191253371Y-125124685D01*
X191824800Y-124696114D02*
X191872419Y-124791352D01*
X191872419Y-124791352D02*
X191872419Y-125029447D01*
X191872419Y-125029447D02*
X191824800Y-125124685D01*
X191824800Y-125124685D02*
X191729561Y-125172304D01*
X191729561Y-125172304D02*
X191634323Y-125172304D01*
X191634323Y-125172304D02*
X191539085Y-125124685D01*
X191539085Y-125124685D02*
X191491466Y-125029447D01*
X191491466Y-125029447D02*
X191491466Y-124791352D01*
X191491466Y-124791352D02*
X191443847Y-124696114D01*
X191205752Y-124219923D02*
X191872419Y-124219923D01*
X191300990Y-124219923D02*
X191253371Y-124172304D01*
X191253371Y-124172304D02*
X191205752Y-124077066D01*
X191205752Y-124077066D02*
X191205752Y-123934209D01*
X191205752Y-123934209D02*
X191253371Y-123838971D01*
X191253371Y-123838971D02*
X191348609Y-123791352D01*
X191348609Y-123791352D02*
X191872419Y-123791352D01*
X191872419Y-123172304D02*
X191824800Y-123267542D01*
X191824800Y-123267542D02*
X191777180Y-123315161D01*
X191777180Y-123315161D02*
X191681942Y-123362780D01*
X191681942Y-123362780D02*
X191396228Y-123362780D01*
X191396228Y-123362780D02*
X191300990Y-123315161D01*
X191300990Y-123315161D02*
X191253371Y-123267542D01*
X191253371Y-123267542D02*
X191205752Y-123172304D01*
X191205752Y-123172304D02*
X191205752Y-123029447D01*
X191205752Y-123029447D02*
X191253371Y-122934209D01*
X191253371Y-122934209D02*
X191300990Y-122886590D01*
X191300990Y-122886590D02*
X191396228Y-122838971D01*
X191396228Y-122838971D02*
X191681942Y-122838971D01*
X191681942Y-122838971D02*
X191777180Y-122886590D01*
X191777180Y-122886590D02*
X191824800Y-122934209D01*
X191824800Y-122934209D02*
X191872419Y-123029447D01*
X191872419Y-123029447D02*
X191872419Y-123172304D01*
X191872419Y-122410399D02*
X190872419Y-122410399D01*
X190872419Y-122410399D02*
X190872419Y-122029447D01*
X190872419Y-122029447D02*
X190920038Y-121934209D01*
X190920038Y-121934209D02*
X190967657Y-121886590D01*
X190967657Y-121886590D02*
X191062895Y-121838971D01*
X191062895Y-121838971D02*
X191205752Y-121838971D01*
X191205752Y-121838971D02*
X191300990Y-121886590D01*
X191300990Y-121886590D02*
X191348609Y-121934209D01*
X191348609Y-121934209D02*
X191396228Y-122029447D01*
X191396228Y-122029447D02*
X191396228Y-122410399D01*
X191300990Y-121267542D02*
X191253371Y-121362780D01*
X191253371Y-121362780D02*
X191205752Y-121410399D01*
X191205752Y-121410399D02*
X191110514Y-121458018D01*
X191110514Y-121458018D02*
X191062895Y-121458018D01*
X191062895Y-121458018D02*
X190967657Y-121410399D01*
X190967657Y-121410399D02*
X190920038Y-121362780D01*
X190920038Y-121362780D02*
X190872419Y-121267542D01*
X190872419Y-121267542D02*
X190872419Y-121077066D01*
X190872419Y-121077066D02*
X190920038Y-120981828D01*
X190920038Y-120981828D02*
X190967657Y-120934209D01*
X190967657Y-120934209D02*
X191062895Y-120886590D01*
X191062895Y-120886590D02*
X191110514Y-120886590D01*
X191110514Y-120886590D02*
X191205752Y-120934209D01*
X191205752Y-120934209D02*
X191253371Y-120981828D01*
X191253371Y-120981828D02*
X191300990Y-121077066D01*
X191300990Y-121077066D02*
X191300990Y-121267542D01*
X191300990Y-121267542D02*
X191348609Y-121362780D01*
X191348609Y-121362780D02*
X191396228Y-121410399D01*
X191396228Y-121410399D02*
X191491466Y-121458018D01*
X191491466Y-121458018D02*
X191681942Y-121458018D01*
X191681942Y-121458018D02*
X191777180Y-121410399D01*
X191777180Y-121410399D02*
X191824800Y-121362780D01*
X191824800Y-121362780D02*
X191872419Y-121267542D01*
X191872419Y-121267542D02*
X191872419Y-121077066D01*
X191872419Y-121077066D02*
X191824800Y-120981828D01*
X191824800Y-120981828D02*
X191777180Y-120934209D01*
X191777180Y-120934209D02*
X191681942Y-120886590D01*
X191681942Y-120886590D02*
X191491466Y-120886590D01*
X191491466Y-120886590D02*
X191396228Y-120934209D01*
X191396228Y-120934209D02*
X191348609Y-120981828D01*
X191348609Y-120981828D02*
X191300990Y-121077066D01*
X190872419Y-119981828D02*
X190872419Y-120458018D01*
X190872419Y-120458018D02*
X191348609Y-120505637D01*
X191348609Y-120505637D02*
X191300990Y-120458018D01*
X191300990Y-120458018D02*
X191253371Y-120362780D01*
X191253371Y-120362780D02*
X191253371Y-120124685D01*
X191253371Y-120124685D02*
X191300990Y-120029447D01*
X191300990Y-120029447D02*
X191348609Y-119981828D01*
X191348609Y-119981828D02*
X191443847Y-119934209D01*
X191443847Y-119934209D02*
X191681942Y-119934209D01*
X191681942Y-119934209D02*
X191777180Y-119981828D01*
X191777180Y-119981828D02*
X191824800Y-120029447D01*
X191824800Y-120029447D02*
X191872419Y-120124685D01*
X191872419Y-120124685D02*
X191872419Y-120362780D01*
X191872419Y-120362780D02*
X191824800Y-120458018D01*
X191824800Y-120458018D02*
X191777180Y-120505637D01*
D11*
X138738095Y-103454819D02*
X139309523Y-103454819D01*
X139023809Y-104454819D02*
X139023809Y-103454819D01*
X139642857Y-104454819D02*
X139642857Y-103454819D01*
X139642857Y-103454819D02*
X140023809Y-103454819D01*
X140023809Y-103454819D02*
X140119047Y-103502438D01*
X140119047Y-103502438D02*
X140166666Y-103550057D01*
X140166666Y-103550057D02*
X140214285Y-103645295D01*
X140214285Y-103645295D02*
X140214285Y-103788152D01*
X140214285Y-103788152D02*
X140166666Y-103883390D01*
X140166666Y-103883390D02*
X140119047Y-103931009D01*
X140119047Y-103931009D02*
X140023809Y-103978628D01*
X140023809Y-103978628D02*
X139642857Y-103978628D01*
X140595238Y-103550057D02*
X140642857Y-103502438D01*
X140642857Y-103502438D02*
X140738095Y-103454819D01*
X140738095Y-103454819D02*
X140976190Y-103454819D01*
X140976190Y-103454819D02*
X141071428Y-103502438D01*
X141071428Y-103502438D02*
X141119047Y-103550057D01*
X141119047Y-103550057D02*
X141166666Y-103645295D01*
X141166666Y-103645295D02*
X141166666Y-103740533D01*
X141166666Y-103740533D02*
X141119047Y-103883390D01*
X141119047Y-103883390D02*
X140547619Y-104454819D01*
X140547619Y-104454819D02*
X141166666Y-104454819D01*
X120859580Y-138666666D02*
X120907200Y-138714285D01*
X120907200Y-138714285D02*
X120954819Y-138857142D01*
X120954819Y-138857142D02*
X120954819Y-138952380D01*
X120954819Y-138952380D02*
X120907200Y-139095237D01*
X120907200Y-139095237D02*
X120811961Y-139190475D01*
X120811961Y-139190475D02*
X120716723Y-139238094D01*
X120716723Y-139238094D02*
X120526247Y-139285713D01*
X120526247Y-139285713D02*
X120383390Y-139285713D01*
X120383390Y-139285713D02*
X120192914Y-139238094D01*
X120192914Y-139238094D02*
X120097676Y-139190475D01*
X120097676Y-139190475D02*
X120002438Y-139095237D01*
X120002438Y-139095237D02*
X119954819Y-138952380D01*
X119954819Y-138952380D02*
X119954819Y-138857142D01*
X119954819Y-138857142D02*
X120002438Y-138714285D01*
X120002438Y-138714285D02*
X120050057Y-138666666D01*
X120288152Y-137809523D02*
X120954819Y-137809523D01*
X119907200Y-138047618D02*
X120621485Y-138285713D01*
X120621485Y-138285713D02*
X120621485Y-137666666D01*
X146023810Y-123314819D02*
X146023810Y-122314819D01*
X147071428Y-123219580D02*
X147023809Y-123267200D01*
X147023809Y-123267200D02*
X146880952Y-123314819D01*
X146880952Y-123314819D02*
X146785714Y-123314819D01*
X146785714Y-123314819D02*
X146642857Y-123267200D01*
X146642857Y-123267200D02*
X146547619Y-123171961D01*
X146547619Y-123171961D02*
X146500000Y-123076723D01*
X146500000Y-123076723D02*
X146452381Y-122886247D01*
X146452381Y-122886247D02*
X146452381Y-122743390D01*
X146452381Y-122743390D02*
X146500000Y-122552914D01*
X146500000Y-122552914D02*
X146547619Y-122457676D01*
X146547619Y-122457676D02*
X146642857Y-122362438D01*
X146642857Y-122362438D02*
X146785714Y-122314819D01*
X146785714Y-122314819D02*
X146880952Y-122314819D01*
X146880952Y-122314819D02*
X147023809Y-122362438D01*
X147023809Y-122362438D02*
X147071428Y-122410057D01*
X148023809Y-123314819D02*
X147452381Y-123314819D01*
X147738095Y-123314819D02*
X147738095Y-122314819D01*
X147738095Y-122314819D02*
X147642857Y-122457676D01*
X147642857Y-122457676D02*
X147547619Y-122552914D01*
X147547619Y-122552914D02*
X147452381Y-122600533D01*
X157023810Y-111894819D02*
X157023810Y-110894819D01*
X158071428Y-111799580D02*
X158023809Y-111847200D01*
X158023809Y-111847200D02*
X157880952Y-111894819D01*
X157880952Y-111894819D02*
X157785714Y-111894819D01*
X157785714Y-111894819D02*
X157642857Y-111847200D01*
X157642857Y-111847200D02*
X157547619Y-111751961D01*
X157547619Y-111751961D02*
X157500000Y-111656723D01*
X157500000Y-111656723D02*
X157452381Y-111466247D01*
X157452381Y-111466247D02*
X157452381Y-111323390D01*
X157452381Y-111323390D02*
X157500000Y-111132914D01*
X157500000Y-111132914D02*
X157547619Y-111037676D01*
X157547619Y-111037676D02*
X157642857Y-110942438D01*
X157642857Y-110942438D02*
X157785714Y-110894819D01*
X157785714Y-110894819D02*
X157880952Y-110894819D01*
X157880952Y-110894819D02*
X158023809Y-110942438D01*
X158023809Y-110942438D02*
X158071428Y-110990057D01*
X158452381Y-110990057D02*
X158500000Y-110942438D01*
X158500000Y-110942438D02*
X158595238Y-110894819D01*
X158595238Y-110894819D02*
X158833333Y-110894819D01*
X158833333Y-110894819D02*
X158928571Y-110942438D01*
X158928571Y-110942438D02*
X158976190Y-110990057D01*
X158976190Y-110990057D02*
X159023809Y-111085295D01*
X159023809Y-111085295D02*
X159023809Y-111180533D01*
X159023809Y-111180533D02*
X158976190Y-111323390D01*
X158976190Y-111323390D02*
X158404762Y-111894819D01*
X158404762Y-111894819D02*
X159023809Y-111894819D01*
X162609580Y-136619047D02*
X162657200Y-136666666D01*
X162657200Y-136666666D02*
X162704819Y-136809523D01*
X162704819Y-136809523D02*
X162704819Y-136904761D01*
X162704819Y-136904761D02*
X162657200Y-137047618D01*
X162657200Y-137047618D02*
X162561961Y-137142856D01*
X162561961Y-137142856D02*
X162466723Y-137190475D01*
X162466723Y-137190475D02*
X162276247Y-137238094D01*
X162276247Y-137238094D02*
X162133390Y-137238094D01*
X162133390Y-137238094D02*
X161942914Y-137190475D01*
X161942914Y-137190475D02*
X161847676Y-137142856D01*
X161847676Y-137142856D02*
X161752438Y-137047618D01*
X161752438Y-137047618D02*
X161704819Y-136904761D01*
X161704819Y-136904761D02*
X161704819Y-136809523D01*
X161704819Y-136809523D02*
X161752438Y-136666666D01*
X161752438Y-136666666D02*
X161800057Y-136619047D01*
X161800057Y-136238094D02*
X161752438Y-136190475D01*
X161752438Y-136190475D02*
X161704819Y-136095237D01*
X161704819Y-136095237D02*
X161704819Y-135857142D01*
X161704819Y-135857142D02*
X161752438Y-135761904D01*
X161752438Y-135761904D02*
X161800057Y-135714285D01*
X161800057Y-135714285D02*
X161895295Y-135666666D01*
X161895295Y-135666666D02*
X161990533Y-135666666D01*
X161990533Y-135666666D02*
X162133390Y-135714285D01*
X162133390Y-135714285D02*
X162704819Y-136285713D01*
X162704819Y-136285713D02*
X162704819Y-135666666D01*
X161704819Y-135047618D02*
X161704819Y-134952380D01*
X161704819Y-134952380D02*
X161752438Y-134857142D01*
X161752438Y-134857142D02*
X161800057Y-134809523D01*
X161800057Y-134809523D02*
X161895295Y-134761904D01*
X161895295Y-134761904D02*
X162085771Y-134714285D01*
X162085771Y-134714285D02*
X162323866Y-134714285D01*
X162323866Y-134714285D02*
X162514342Y-134761904D01*
X162514342Y-134761904D02*
X162609580Y-134809523D01*
X162609580Y-134809523D02*
X162657200Y-134857142D01*
X162657200Y-134857142D02*
X162704819Y-134952380D01*
X162704819Y-134952380D02*
X162704819Y-135047618D01*
X162704819Y-135047618D02*
X162657200Y-135142856D01*
X162657200Y-135142856D02*
X162609580Y-135190475D01*
X162609580Y-135190475D02*
X162514342Y-135238094D01*
X162514342Y-135238094D02*
X162323866Y-135285713D01*
X162323866Y-135285713D02*
X162085771Y-135285713D01*
X162085771Y-135285713D02*
X161895295Y-135238094D01*
X161895295Y-135238094D02*
X161800057Y-135190475D01*
X161800057Y-135190475D02*
X161752438Y-135142856D01*
X161752438Y-135142856D02*
X161704819Y-135047618D01*
X162704819Y-133761904D02*
X162704819Y-134333332D01*
X162704819Y-134047618D02*
X161704819Y-134047618D01*
X161704819Y-134047618D02*
X161847676Y-134142856D01*
X161847676Y-134142856D02*
X161942914Y-134238094D01*
X161942914Y-134238094D02*
X161990533Y-134333332D01*
X131824819Y-125309047D02*
X131348628Y-125642380D01*
X131824819Y-125880475D02*
X130824819Y-125880475D01*
X130824819Y-125880475D02*
X130824819Y-125499523D01*
X130824819Y-125499523D02*
X130872438Y-125404285D01*
X130872438Y-125404285D02*
X130920057Y-125356666D01*
X130920057Y-125356666D02*
X131015295Y-125309047D01*
X131015295Y-125309047D02*
X131158152Y-125309047D01*
X131158152Y-125309047D02*
X131253390Y-125356666D01*
X131253390Y-125356666D02*
X131301009Y-125404285D01*
X131301009Y-125404285D02*
X131348628Y-125499523D01*
X131348628Y-125499523D02*
X131348628Y-125880475D01*
X131824819Y-124356666D02*
X131824819Y-124928094D01*
X131824819Y-124642380D02*
X130824819Y-124642380D01*
X130824819Y-124642380D02*
X130967676Y-124737618D01*
X130967676Y-124737618D02*
X131062914Y-124832856D01*
X131062914Y-124832856D02*
X131110533Y-124928094D01*
X130824819Y-123737618D02*
X130824819Y-123642380D01*
X130824819Y-123642380D02*
X130872438Y-123547142D01*
X130872438Y-123547142D02*
X130920057Y-123499523D01*
X130920057Y-123499523D02*
X131015295Y-123451904D01*
X131015295Y-123451904D02*
X131205771Y-123404285D01*
X131205771Y-123404285D02*
X131443866Y-123404285D01*
X131443866Y-123404285D02*
X131634342Y-123451904D01*
X131634342Y-123451904D02*
X131729580Y-123499523D01*
X131729580Y-123499523D02*
X131777200Y-123547142D01*
X131777200Y-123547142D02*
X131824819Y-123642380D01*
X131824819Y-123642380D02*
X131824819Y-123737618D01*
X131824819Y-123737618D02*
X131777200Y-123832856D01*
X131777200Y-123832856D02*
X131729580Y-123880475D01*
X131729580Y-123880475D02*
X131634342Y-123928094D01*
X131634342Y-123928094D02*
X131443866Y-123975713D01*
X131443866Y-123975713D02*
X131205771Y-123975713D01*
X131205771Y-123975713D02*
X131015295Y-123928094D01*
X131015295Y-123928094D02*
X130920057Y-123880475D01*
X130920057Y-123880475D02*
X130872438Y-123832856D01*
X130872438Y-123832856D02*
X130824819Y-123737618D01*
X130920057Y-123023332D02*
X130872438Y-122975713D01*
X130872438Y-122975713D02*
X130824819Y-122880475D01*
X130824819Y-122880475D02*
X130824819Y-122642380D01*
X130824819Y-122642380D02*
X130872438Y-122547142D01*
X130872438Y-122547142D02*
X130920057Y-122499523D01*
X130920057Y-122499523D02*
X131015295Y-122451904D01*
X131015295Y-122451904D02*
X131110533Y-122451904D01*
X131110533Y-122451904D02*
X131253390Y-122499523D01*
X131253390Y-122499523D02*
X131824819Y-123070951D01*
X131824819Y-123070951D02*
X131824819Y-122451904D01*
X103359580Y-138166666D02*
X103407200Y-138214285D01*
X103407200Y-138214285D02*
X103454819Y-138357142D01*
X103454819Y-138357142D02*
X103454819Y-138452380D01*
X103454819Y-138452380D02*
X103407200Y-138595237D01*
X103407200Y-138595237D02*
X103311961Y-138690475D01*
X103311961Y-138690475D02*
X103216723Y-138738094D01*
X103216723Y-138738094D02*
X103026247Y-138785713D01*
X103026247Y-138785713D02*
X102883390Y-138785713D01*
X102883390Y-138785713D02*
X102692914Y-138738094D01*
X102692914Y-138738094D02*
X102597676Y-138690475D01*
X102597676Y-138690475D02*
X102502438Y-138595237D01*
X102502438Y-138595237D02*
X102454819Y-138452380D01*
X102454819Y-138452380D02*
X102454819Y-138357142D01*
X102454819Y-138357142D02*
X102502438Y-138214285D01*
X102502438Y-138214285D02*
X102550057Y-138166666D01*
X103454819Y-137214285D02*
X103454819Y-137785713D01*
X103454819Y-137499999D02*
X102454819Y-137499999D01*
X102454819Y-137499999D02*
X102597676Y-137595237D01*
X102597676Y-137595237D02*
X102692914Y-137690475D01*
X102692914Y-137690475D02*
X102740533Y-137785713D01*
X103359580Y-125166666D02*
X103407200Y-125214285D01*
X103407200Y-125214285D02*
X103454819Y-125357142D01*
X103454819Y-125357142D02*
X103454819Y-125452380D01*
X103454819Y-125452380D02*
X103407200Y-125595237D01*
X103407200Y-125595237D02*
X103311961Y-125690475D01*
X103311961Y-125690475D02*
X103216723Y-125738094D01*
X103216723Y-125738094D02*
X103026247Y-125785713D01*
X103026247Y-125785713D02*
X102883390Y-125785713D01*
X102883390Y-125785713D02*
X102692914Y-125738094D01*
X102692914Y-125738094D02*
X102597676Y-125690475D01*
X102597676Y-125690475D02*
X102502438Y-125595237D01*
X102502438Y-125595237D02*
X102454819Y-125452380D01*
X102454819Y-125452380D02*
X102454819Y-125357142D01*
X102454819Y-125357142D02*
X102502438Y-125214285D01*
X102502438Y-125214285D02*
X102550057Y-125166666D01*
X102550057Y-124785713D02*
X102502438Y-124738094D01*
X102502438Y-124738094D02*
X102454819Y-124642856D01*
X102454819Y-124642856D02*
X102454819Y-124404761D01*
X102454819Y-124404761D02*
X102502438Y-124309523D01*
X102502438Y-124309523D02*
X102550057Y-124261904D01*
X102550057Y-124261904D02*
X102645295Y-124214285D01*
X102645295Y-124214285D02*
X102740533Y-124214285D01*
X102740533Y-124214285D02*
X102883390Y-124261904D01*
X102883390Y-124261904D02*
X103454819Y-124833332D01*
X103454819Y-124833332D02*
X103454819Y-124214285D01*
X131824819Y-137929047D02*
X131348628Y-138262380D01*
X131824819Y-138500475D02*
X130824819Y-138500475D01*
X130824819Y-138500475D02*
X130824819Y-138119523D01*
X130824819Y-138119523D02*
X130872438Y-138024285D01*
X130872438Y-138024285D02*
X130920057Y-137976666D01*
X130920057Y-137976666D02*
X131015295Y-137929047D01*
X131015295Y-137929047D02*
X131158152Y-137929047D01*
X131158152Y-137929047D02*
X131253390Y-137976666D01*
X131253390Y-137976666D02*
X131301009Y-138024285D01*
X131301009Y-138024285D02*
X131348628Y-138119523D01*
X131348628Y-138119523D02*
X131348628Y-138500475D01*
X131824819Y-136976666D02*
X131824819Y-137548094D01*
X131824819Y-137262380D02*
X130824819Y-137262380D01*
X130824819Y-137262380D02*
X130967676Y-137357618D01*
X130967676Y-137357618D02*
X131062914Y-137452856D01*
X131062914Y-137452856D02*
X131110533Y-137548094D01*
X130824819Y-136357618D02*
X130824819Y-136262380D01*
X130824819Y-136262380D02*
X130872438Y-136167142D01*
X130872438Y-136167142D02*
X130920057Y-136119523D01*
X130920057Y-136119523D02*
X131015295Y-136071904D01*
X131015295Y-136071904D02*
X131205771Y-136024285D01*
X131205771Y-136024285D02*
X131443866Y-136024285D01*
X131443866Y-136024285D02*
X131634342Y-136071904D01*
X131634342Y-136071904D02*
X131729580Y-136119523D01*
X131729580Y-136119523D02*
X131777200Y-136167142D01*
X131777200Y-136167142D02*
X131824819Y-136262380D01*
X131824819Y-136262380D02*
X131824819Y-136357618D01*
X131824819Y-136357618D02*
X131777200Y-136452856D01*
X131777200Y-136452856D02*
X131729580Y-136500475D01*
X131729580Y-136500475D02*
X131634342Y-136548094D01*
X131634342Y-136548094D02*
X131443866Y-136595713D01*
X131443866Y-136595713D02*
X131205771Y-136595713D01*
X131205771Y-136595713D02*
X131015295Y-136548094D01*
X131015295Y-136548094D02*
X130920057Y-136500475D01*
X130920057Y-136500475D02*
X130872438Y-136452856D01*
X130872438Y-136452856D02*
X130824819Y-136357618D01*
X131824819Y-135071904D02*
X131824819Y-135643332D01*
X131824819Y-135357618D02*
X130824819Y-135357618D01*
X130824819Y-135357618D02*
X130967676Y-135452856D01*
X130967676Y-135452856D02*
X131062914Y-135548094D01*
X131062914Y-135548094D02*
X131110533Y-135643332D01*
X110662319Y-103883333D02*
X111376604Y-103883333D01*
X111376604Y-103883333D02*
X111519461Y-103930952D01*
X111519461Y-103930952D02*
X111614700Y-104026190D01*
X111614700Y-104026190D02*
X111662319Y-104169047D01*
X111662319Y-104169047D02*
X111662319Y-104264285D01*
X111662319Y-102883333D02*
X111662319Y-103454761D01*
X111662319Y-103169047D02*
X110662319Y-103169047D01*
X110662319Y-103169047D02*
X110805176Y-103264285D01*
X110805176Y-103264285D02*
X110900414Y-103359523D01*
X110900414Y-103359523D02*
X110948033Y-103454761D01*
X138859580Y-126619047D02*
X138907200Y-126666666D01*
X138907200Y-126666666D02*
X138954819Y-126809523D01*
X138954819Y-126809523D02*
X138954819Y-126904761D01*
X138954819Y-126904761D02*
X138907200Y-127047618D01*
X138907200Y-127047618D02*
X138811961Y-127142856D01*
X138811961Y-127142856D02*
X138716723Y-127190475D01*
X138716723Y-127190475D02*
X138526247Y-127238094D01*
X138526247Y-127238094D02*
X138383390Y-127238094D01*
X138383390Y-127238094D02*
X138192914Y-127190475D01*
X138192914Y-127190475D02*
X138097676Y-127142856D01*
X138097676Y-127142856D02*
X138002438Y-127047618D01*
X138002438Y-127047618D02*
X137954819Y-126904761D01*
X137954819Y-126904761D02*
X137954819Y-126809523D01*
X137954819Y-126809523D02*
X138002438Y-126666666D01*
X138002438Y-126666666D02*
X138050057Y-126619047D01*
X138954819Y-125666666D02*
X138954819Y-126238094D01*
X138954819Y-125952380D02*
X137954819Y-125952380D01*
X137954819Y-125952380D02*
X138097676Y-126047618D01*
X138097676Y-126047618D02*
X138192914Y-126142856D01*
X138192914Y-126142856D02*
X138240533Y-126238094D01*
X137954819Y-125047618D02*
X137954819Y-124952380D01*
X137954819Y-124952380D02*
X138002438Y-124857142D01*
X138002438Y-124857142D02*
X138050057Y-124809523D01*
X138050057Y-124809523D02*
X138145295Y-124761904D01*
X138145295Y-124761904D02*
X138335771Y-124714285D01*
X138335771Y-124714285D02*
X138573866Y-124714285D01*
X138573866Y-124714285D02*
X138764342Y-124761904D01*
X138764342Y-124761904D02*
X138859580Y-124809523D01*
X138859580Y-124809523D02*
X138907200Y-124857142D01*
X138907200Y-124857142D02*
X138954819Y-124952380D01*
X138954819Y-124952380D02*
X138954819Y-125047618D01*
X138954819Y-125047618D02*
X138907200Y-125142856D01*
X138907200Y-125142856D02*
X138859580Y-125190475D01*
X138859580Y-125190475D02*
X138764342Y-125238094D01*
X138764342Y-125238094D02*
X138573866Y-125285713D01*
X138573866Y-125285713D02*
X138335771Y-125285713D01*
X138335771Y-125285713D02*
X138145295Y-125238094D01*
X138145295Y-125238094D02*
X138050057Y-125190475D01*
X138050057Y-125190475D02*
X138002438Y-125142856D01*
X138002438Y-125142856D02*
X137954819Y-125047618D01*
X138050057Y-124333332D02*
X138002438Y-124285713D01*
X138002438Y-124285713D02*
X137954819Y-124190475D01*
X137954819Y-124190475D02*
X137954819Y-123952380D01*
X137954819Y-123952380D02*
X138002438Y-123857142D01*
X138002438Y-123857142D02*
X138050057Y-123809523D01*
X138050057Y-123809523D02*
X138145295Y-123761904D01*
X138145295Y-123761904D02*
X138240533Y-123761904D01*
X138240533Y-123761904D02*
X138383390Y-123809523D01*
X138383390Y-123809523D02*
X138954819Y-124380951D01*
X138954819Y-124380951D02*
X138954819Y-123761904D01*
X172824819Y-145309047D02*
X172348628Y-145642380D01*
X172824819Y-145880475D02*
X171824819Y-145880475D01*
X171824819Y-145880475D02*
X171824819Y-145499523D01*
X171824819Y-145499523D02*
X171872438Y-145404285D01*
X171872438Y-145404285D02*
X171920057Y-145356666D01*
X171920057Y-145356666D02*
X172015295Y-145309047D01*
X172015295Y-145309047D02*
X172158152Y-145309047D01*
X172158152Y-145309047D02*
X172253390Y-145356666D01*
X172253390Y-145356666D02*
X172301009Y-145404285D01*
X172301009Y-145404285D02*
X172348628Y-145499523D01*
X172348628Y-145499523D02*
X172348628Y-145880475D01*
X172824819Y-144356666D02*
X172824819Y-144928094D01*
X172824819Y-144642380D02*
X171824819Y-144642380D01*
X171824819Y-144642380D02*
X171967676Y-144737618D01*
X171967676Y-144737618D02*
X172062914Y-144832856D01*
X172062914Y-144832856D02*
X172110533Y-144928094D01*
X171824819Y-143737618D02*
X171824819Y-143642380D01*
X171824819Y-143642380D02*
X171872438Y-143547142D01*
X171872438Y-143547142D02*
X171920057Y-143499523D01*
X171920057Y-143499523D02*
X172015295Y-143451904D01*
X172015295Y-143451904D02*
X172205771Y-143404285D01*
X172205771Y-143404285D02*
X172443866Y-143404285D01*
X172443866Y-143404285D02*
X172634342Y-143451904D01*
X172634342Y-143451904D02*
X172729580Y-143499523D01*
X172729580Y-143499523D02*
X172777200Y-143547142D01*
X172777200Y-143547142D02*
X172824819Y-143642380D01*
X172824819Y-143642380D02*
X172824819Y-143737618D01*
X172824819Y-143737618D02*
X172777200Y-143832856D01*
X172777200Y-143832856D02*
X172729580Y-143880475D01*
X172729580Y-143880475D02*
X172634342Y-143928094D01*
X172634342Y-143928094D02*
X172443866Y-143975713D01*
X172443866Y-143975713D02*
X172205771Y-143975713D01*
X172205771Y-143975713D02*
X172015295Y-143928094D01*
X172015295Y-143928094D02*
X171920057Y-143880475D01*
X171920057Y-143880475D02*
X171872438Y-143832856D01*
X171872438Y-143832856D02*
X171824819Y-143737618D01*
X172158152Y-142547142D02*
X172824819Y-142547142D01*
X171777200Y-142785237D02*
X172491485Y-143023332D01*
X172491485Y-143023332D02*
X172491485Y-142404285D01*
X137643333Y-113084819D02*
X137310000Y-112608628D01*
X137071905Y-113084819D02*
X137071905Y-112084819D01*
X137071905Y-112084819D02*
X137452857Y-112084819D01*
X137452857Y-112084819D02*
X137548095Y-112132438D01*
X137548095Y-112132438D02*
X137595714Y-112180057D01*
X137595714Y-112180057D02*
X137643333Y-112275295D01*
X137643333Y-112275295D02*
X137643333Y-112418152D01*
X137643333Y-112418152D02*
X137595714Y-112513390D01*
X137595714Y-112513390D02*
X137548095Y-112561009D01*
X137548095Y-112561009D02*
X137452857Y-112608628D01*
X137452857Y-112608628D02*
X137071905Y-112608628D01*
X138595714Y-113084819D02*
X138024286Y-113084819D01*
X138310000Y-113084819D02*
X138310000Y-112084819D01*
X138310000Y-112084819D02*
X138214762Y-112227676D01*
X138214762Y-112227676D02*
X138119524Y-112322914D01*
X138119524Y-112322914D02*
X138024286Y-112370533D01*
X160859580Y-127119047D02*
X160907200Y-127166666D01*
X160907200Y-127166666D02*
X160954819Y-127309523D01*
X160954819Y-127309523D02*
X160954819Y-127404761D01*
X160954819Y-127404761D02*
X160907200Y-127547618D01*
X160907200Y-127547618D02*
X160811961Y-127642856D01*
X160811961Y-127642856D02*
X160716723Y-127690475D01*
X160716723Y-127690475D02*
X160526247Y-127738094D01*
X160526247Y-127738094D02*
X160383390Y-127738094D01*
X160383390Y-127738094D02*
X160192914Y-127690475D01*
X160192914Y-127690475D02*
X160097676Y-127642856D01*
X160097676Y-127642856D02*
X160002438Y-127547618D01*
X160002438Y-127547618D02*
X159954819Y-127404761D01*
X159954819Y-127404761D02*
X159954819Y-127309523D01*
X159954819Y-127309523D02*
X160002438Y-127166666D01*
X160002438Y-127166666D02*
X160050057Y-127119047D01*
X160050057Y-126738094D02*
X160002438Y-126690475D01*
X160002438Y-126690475D02*
X159954819Y-126595237D01*
X159954819Y-126595237D02*
X159954819Y-126357142D01*
X159954819Y-126357142D02*
X160002438Y-126261904D01*
X160002438Y-126261904D02*
X160050057Y-126214285D01*
X160050057Y-126214285D02*
X160145295Y-126166666D01*
X160145295Y-126166666D02*
X160240533Y-126166666D01*
X160240533Y-126166666D02*
X160383390Y-126214285D01*
X160383390Y-126214285D02*
X160954819Y-126785713D01*
X160954819Y-126785713D02*
X160954819Y-126166666D01*
X159954819Y-125547618D02*
X159954819Y-125452380D01*
X159954819Y-125452380D02*
X160002438Y-125357142D01*
X160002438Y-125357142D02*
X160050057Y-125309523D01*
X160050057Y-125309523D02*
X160145295Y-125261904D01*
X160145295Y-125261904D02*
X160335771Y-125214285D01*
X160335771Y-125214285D02*
X160573866Y-125214285D01*
X160573866Y-125214285D02*
X160764342Y-125261904D01*
X160764342Y-125261904D02*
X160859580Y-125309523D01*
X160859580Y-125309523D02*
X160907200Y-125357142D01*
X160907200Y-125357142D02*
X160954819Y-125452380D01*
X160954819Y-125452380D02*
X160954819Y-125547618D01*
X160954819Y-125547618D02*
X160907200Y-125642856D01*
X160907200Y-125642856D02*
X160859580Y-125690475D01*
X160859580Y-125690475D02*
X160764342Y-125738094D01*
X160764342Y-125738094D02*
X160573866Y-125785713D01*
X160573866Y-125785713D02*
X160335771Y-125785713D01*
X160335771Y-125785713D02*
X160145295Y-125738094D01*
X160145295Y-125738094D02*
X160050057Y-125690475D01*
X160050057Y-125690475D02*
X160002438Y-125642856D01*
X160002438Y-125642856D02*
X159954819Y-125547618D01*
X160050057Y-124833332D02*
X160002438Y-124785713D01*
X160002438Y-124785713D02*
X159954819Y-124690475D01*
X159954819Y-124690475D02*
X159954819Y-124452380D01*
X159954819Y-124452380D02*
X160002438Y-124357142D01*
X160002438Y-124357142D02*
X160050057Y-124309523D01*
X160050057Y-124309523D02*
X160145295Y-124261904D01*
X160145295Y-124261904D02*
X160240533Y-124261904D01*
X160240533Y-124261904D02*
X160383390Y-124309523D01*
X160383390Y-124309523D02*
X160954819Y-124880951D01*
X160954819Y-124880951D02*
X160954819Y-124261904D01*
X148738095Y-103454819D02*
X149309523Y-103454819D01*
X149023809Y-104454819D02*
X149023809Y-103454819D01*
X149642857Y-104454819D02*
X149642857Y-103454819D01*
X149642857Y-103454819D02*
X150023809Y-103454819D01*
X150023809Y-103454819D02*
X150119047Y-103502438D01*
X150119047Y-103502438D02*
X150166666Y-103550057D01*
X150166666Y-103550057D02*
X150214285Y-103645295D01*
X150214285Y-103645295D02*
X150214285Y-103788152D01*
X150214285Y-103788152D02*
X150166666Y-103883390D01*
X150166666Y-103883390D02*
X150119047Y-103931009D01*
X150119047Y-103931009D02*
X150023809Y-103978628D01*
X150023809Y-103978628D02*
X149642857Y-103978628D01*
X150547619Y-103454819D02*
X151166666Y-103454819D01*
X151166666Y-103454819D02*
X150833333Y-103835771D01*
X150833333Y-103835771D02*
X150976190Y-103835771D01*
X150976190Y-103835771D02*
X151071428Y-103883390D01*
X151071428Y-103883390D02*
X151119047Y-103931009D01*
X151119047Y-103931009D02*
X151166666Y-104026247D01*
X151166666Y-104026247D02*
X151166666Y-104264342D01*
X151166666Y-104264342D02*
X151119047Y-104359580D01*
X151119047Y-104359580D02*
X151071428Y-104407200D01*
X151071428Y-104407200D02*
X150976190Y-104454819D01*
X150976190Y-104454819D02*
X150690476Y-104454819D01*
X150690476Y-104454819D02*
X150595238Y-104407200D01*
X150595238Y-104407200D02*
X150547619Y-104359580D01*
X164454819Y-105333333D02*
X165169104Y-105333333D01*
X165169104Y-105333333D02*
X165311961Y-105380952D01*
X165311961Y-105380952D02*
X165407200Y-105476190D01*
X165407200Y-105476190D02*
X165454819Y-105619047D01*
X165454819Y-105619047D02*
X165454819Y-105714285D01*
X164550057Y-104904761D02*
X164502438Y-104857142D01*
X164502438Y-104857142D02*
X164454819Y-104761904D01*
X164454819Y-104761904D02*
X164454819Y-104523809D01*
X164454819Y-104523809D02*
X164502438Y-104428571D01*
X164502438Y-104428571D02*
X164550057Y-104380952D01*
X164550057Y-104380952D02*
X164645295Y-104333333D01*
X164645295Y-104333333D02*
X164740533Y-104333333D01*
X164740533Y-104333333D02*
X164883390Y-104380952D01*
X164883390Y-104380952D02*
X165454819Y-104952380D01*
X165454819Y-104952380D02*
X165454819Y-104333333D01*
X140609580Y-136619047D02*
X140657200Y-136666666D01*
X140657200Y-136666666D02*
X140704819Y-136809523D01*
X140704819Y-136809523D02*
X140704819Y-136904761D01*
X140704819Y-136904761D02*
X140657200Y-137047618D01*
X140657200Y-137047618D02*
X140561961Y-137142856D01*
X140561961Y-137142856D02*
X140466723Y-137190475D01*
X140466723Y-137190475D02*
X140276247Y-137238094D01*
X140276247Y-137238094D02*
X140133390Y-137238094D01*
X140133390Y-137238094D02*
X139942914Y-137190475D01*
X139942914Y-137190475D02*
X139847676Y-137142856D01*
X139847676Y-137142856D02*
X139752438Y-137047618D01*
X139752438Y-137047618D02*
X139704819Y-136904761D01*
X139704819Y-136904761D02*
X139704819Y-136809523D01*
X139704819Y-136809523D02*
X139752438Y-136666666D01*
X139752438Y-136666666D02*
X139800057Y-136619047D01*
X140704819Y-135666666D02*
X140704819Y-136238094D01*
X140704819Y-135952380D02*
X139704819Y-135952380D01*
X139704819Y-135952380D02*
X139847676Y-136047618D01*
X139847676Y-136047618D02*
X139942914Y-136142856D01*
X139942914Y-136142856D02*
X139990533Y-136238094D01*
X139704819Y-135047618D02*
X139704819Y-134952380D01*
X139704819Y-134952380D02*
X139752438Y-134857142D01*
X139752438Y-134857142D02*
X139800057Y-134809523D01*
X139800057Y-134809523D02*
X139895295Y-134761904D01*
X139895295Y-134761904D02*
X140085771Y-134714285D01*
X140085771Y-134714285D02*
X140323866Y-134714285D01*
X140323866Y-134714285D02*
X140514342Y-134761904D01*
X140514342Y-134761904D02*
X140609580Y-134809523D01*
X140609580Y-134809523D02*
X140657200Y-134857142D01*
X140657200Y-134857142D02*
X140704819Y-134952380D01*
X140704819Y-134952380D02*
X140704819Y-135047618D01*
X140704819Y-135047618D02*
X140657200Y-135142856D01*
X140657200Y-135142856D02*
X140609580Y-135190475D01*
X140609580Y-135190475D02*
X140514342Y-135238094D01*
X140514342Y-135238094D02*
X140323866Y-135285713D01*
X140323866Y-135285713D02*
X140085771Y-135285713D01*
X140085771Y-135285713D02*
X139895295Y-135238094D01*
X139895295Y-135238094D02*
X139800057Y-135190475D01*
X139800057Y-135190475D02*
X139752438Y-135142856D01*
X139752438Y-135142856D02*
X139704819Y-135047618D01*
X140704819Y-133761904D02*
X140704819Y-134333332D01*
X140704819Y-134047618D02*
X139704819Y-134047618D01*
X139704819Y-134047618D02*
X139847676Y-134142856D01*
X139847676Y-134142856D02*
X139942914Y-134238094D01*
X139942914Y-134238094D02*
X139990533Y-134333332D01*
X167824819Y-145309047D02*
X167348628Y-145642380D01*
X167824819Y-145880475D02*
X166824819Y-145880475D01*
X166824819Y-145880475D02*
X166824819Y-145499523D01*
X166824819Y-145499523D02*
X166872438Y-145404285D01*
X166872438Y-145404285D02*
X166920057Y-145356666D01*
X166920057Y-145356666D02*
X167015295Y-145309047D01*
X167015295Y-145309047D02*
X167158152Y-145309047D01*
X167158152Y-145309047D02*
X167253390Y-145356666D01*
X167253390Y-145356666D02*
X167301009Y-145404285D01*
X167301009Y-145404285D02*
X167348628Y-145499523D01*
X167348628Y-145499523D02*
X167348628Y-145880475D01*
X166920057Y-144928094D02*
X166872438Y-144880475D01*
X166872438Y-144880475D02*
X166824819Y-144785237D01*
X166824819Y-144785237D02*
X166824819Y-144547142D01*
X166824819Y-144547142D02*
X166872438Y-144451904D01*
X166872438Y-144451904D02*
X166920057Y-144404285D01*
X166920057Y-144404285D02*
X167015295Y-144356666D01*
X167015295Y-144356666D02*
X167110533Y-144356666D01*
X167110533Y-144356666D02*
X167253390Y-144404285D01*
X167253390Y-144404285D02*
X167824819Y-144975713D01*
X167824819Y-144975713D02*
X167824819Y-144356666D01*
X166824819Y-143737618D02*
X166824819Y-143642380D01*
X166824819Y-143642380D02*
X166872438Y-143547142D01*
X166872438Y-143547142D02*
X166920057Y-143499523D01*
X166920057Y-143499523D02*
X167015295Y-143451904D01*
X167015295Y-143451904D02*
X167205771Y-143404285D01*
X167205771Y-143404285D02*
X167443866Y-143404285D01*
X167443866Y-143404285D02*
X167634342Y-143451904D01*
X167634342Y-143451904D02*
X167729580Y-143499523D01*
X167729580Y-143499523D02*
X167777200Y-143547142D01*
X167777200Y-143547142D02*
X167824819Y-143642380D01*
X167824819Y-143642380D02*
X167824819Y-143737618D01*
X167824819Y-143737618D02*
X167777200Y-143832856D01*
X167777200Y-143832856D02*
X167729580Y-143880475D01*
X167729580Y-143880475D02*
X167634342Y-143928094D01*
X167634342Y-143928094D02*
X167443866Y-143975713D01*
X167443866Y-143975713D02*
X167205771Y-143975713D01*
X167205771Y-143975713D02*
X167015295Y-143928094D01*
X167015295Y-143928094D02*
X166920057Y-143880475D01*
X166920057Y-143880475D02*
X166872438Y-143832856D01*
X166872438Y-143832856D02*
X166824819Y-143737618D01*
X167158152Y-142547142D02*
X167824819Y-142547142D01*
X166777200Y-142785237D02*
X167491485Y-143023332D01*
X167491485Y-143023332D02*
X167491485Y-142404285D01*
X167824819Y-126309047D02*
X167348628Y-126642380D01*
X167824819Y-126880475D02*
X166824819Y-126880475D01*
X166824819Y-126880475D02*
X166824819Y-126499523D01*
X166824819Y-126499523D02*
X166872438Y-126404285D01*
X166872438Y-126404285D02*
X166920057Y-126356666D01*
X166920057Y-126356666D02*
X167015295Y-126309047D01*
X167015295Y-126309047D02*
X167158152Y-126309047D01*
X167158152Y-126309047D02*
X167253390Y-126356666D01*
X167253390Y-126356666D02*
X167301009Y-126404285D01*
X167301009Y-126404285D02*
X167348628Y-126499523D01*
X167348628Y-126499523D02*
X167348628Y-126880475D01*
X166920057Y-125928094D02*
X166872438Y-125880475D01*
X166872438Y-125880475D02*
X166824819Y-125785237D01*
X166824819Y-125785237D02*
X166824819Y-125547142D01*
X166824819Y-125547142D02*
X166872438Y-125451904D01*
X166872438Y-125451904D02*
X166920057Y-125404285D01*
X166920057Y-125404285D02*
X167015295Y-125356666D01*
X167015295Y-125356666D02*
X167110533Y-125356666D01*
X167110533Y-125356666D02*
X167253390Y-125404285D01*
X167253390Y-125404285D02*
X167824819Y-125975713D01*
X167824819Y-125975713D02*
X167824819Y-125356666D01*
X166824819Y-124737618D02*
X166824819Y-124642380D01*
X166824819Y-124642380D02*
X166872438Y-124547142D01*
X166872438Y-124547142D02*
X166920057Y-124499523D01*
X166920057Y-124499523D02*
X167015295Y-124451904D01*
X167015295Y-124451904D02*
X167205771Y-124404285D01*
X167205771Y-124404285D02*
X167443866Y-124404285D01*
X167443866Y-124404285D02*
X167634342Y-124451904D01*
X167634342Y-124451904D02*
X167729580Y-124499523D01*
X167729580Y-124499523D02*
X167777200Y-124547142D01*
X167777200Y-124547142D02*
X167824819Y-124642380D01*
X167824819Y-124642380D02*
X167824819Y-124737618D01*
X167824819Y-124737618D02*
X167777200Y-124832856D01*
X167777200Y-124832856D02*
X167729580Y-124880475D01*
X167729580Y-124880475D02*
X167634342Y-124928094D01*
X167634342Y-124928094D02*
X167443866Y-124975713D01*
X167443866Y-124975713D02*
X167205771Y-124975713D01*
X167205771Y-124975713D02*
X167015295Y-124928094D01*
X167015295Y-124928094D02*
X166920057Y-124880475D01*
X166920057Y-124880475D02*
X166872438Y-124832856D01*
X166872438Y-124832856D02*
X166824819Y-124737618D01*
X166920057Y-124023332D02*
X166872438Y-123975713D01*
X166872438Y-123975713D02*
X166824819Y-123880475D01*
X166824819Y-123880475D02*
X166824819Y-123642380D01*
X166824819Y-123642380D02*
X166872438Y-123547142D01*
X166872438Y-123547142D02*
X166920057Y-123499523D01*
X166920057Y-123499523D02*
X167015295Y-123451904D01*
X167015295Y-123451904D02*
X167110533Y-123451904D01*
X167110533Y-123451904D02*
X167253390Y-123499523D01*
X167253390Y-123499523D02*
X167824819Y-124070951D01*
X167824819Y-124070951D02*
X167824819Y-123451904D01*
X158738095Y-103454819D02*
X159309523Y-103454819D01*
X159023809Y-104454819D02*
X159023809Y-103454819D01*
X159642857Y-104454819D02*
X159642857Y-103454819D01*
X159642857Y-103454819D02*
X160023809Y-103454819D01*
X160023809Y-103454819D02*
X160119047Y-103502438D01*
X160119047Y-103502438D02*
X160166666Y-103550057D01*
X160166666Y-103550057D02*
X160214285Y-103645295D01*
X160214285Y-103645295D02*
X160214285Y-103788152D01*
X160214285Y-103788152D02*
X160166666Y-103883390D01*
X160166666Y-103883390D02*
X160119047Y-103931009D01*
X160119047Y-103931009D02*
X160023809Y-103978628D01*
X160023809Y-103978628D02*
X159642857Y-103978628D01*
X161166666Y-104454819D02*
X160595238Y-104454819D01*
X160880952Y-104454819D02*
X160880952Y-103454819D01*
X160880952Y-103454819D02*
X160785714Y-103597676D01*
X160785714Y-103597676D02*
X160690476Y-103692914D01*
X160690476Y-103692914D02*
X160595238Y-103740533D01*
X173954819Y-126309047D02*
X173478628Y-126642380D01*
X173954819Y-126880475D02*
X172954819Y-126880475D01*
X172954819Y-126880475D02*
X172954819Y-126499523D01*
X172954819Y-126499523D02*
X173002438Y-126404285D01*
X173002438Y-126404285D02*
X173050057Y-126356666D01*
X173050057Y-126356666D02*
X173145295Y-126309047D01*
X173145295Y-126309047D02*
X173288152Y-126309047D01*
X173288152Y-126309047D02*
X173383390Y-126356666D01*
X173383390Y-126356666D02*
X173431009Y-126404285D01*
X173431009Y-126404285D02*
X173478628Y-126499523D01*
X173478628Y-126499523D02*
X173478628Y-126880475D01*
X173050057Y-125928094D02*
X173002438Y-125880475D01*
X173002438Y-125880475D02*
X172954819Y-125785237D01*
X172954819Y-125785237D02*
X172954819Y-125547142D01*
X172954819Y-125547142D02*
X173002438Y-125451904D01*
X173002438Y-125451904D02*
X173050057Y-125404285D01*
X173050057Y-125404285D02*
X173145295Y-125356666D01*
X173145295Y-125356666D02*
X173240533Y-125356666D01*
X173240533Y-125356666D02*
X173383390Y-125404285D01*
X173383390Y-125404285D02*
X173954819Y-125975713D01*
X173954819Y-125975713D02*
X173954819Y-125356666D01*
X172954819Y-124737618D02*
X172954819Y-124642380D01*
X172954819Y-124642380D02*
X173002438Y-124547142D01*
X173002438Y-124547142D02*
X173050057Y-124499523D01*
X173050057Y-124499523D02*
X173145295Y-124451904D01*
X173145295Y-124451904D02*
X173335771Y-124404285D01*
X173335771Y-124404285D02*
X173573866Y-124404285D01*
X173573866Y-124404285D02*
X173764342Y-124451904D01*
X173764342Y-124451904D02*
X173859580Y-124499523D01*
X173859580Y-124499523D02*
X173907200Y-124547142D01*
X173907200Y-124547142D02*
X173954819Y-124642380D01*
X173954819Y-124642380D02*
X173954819Y-124737618D01*
X173954819Y-124737618D02*
X173907200Y-124832856D01*
X173907200Y-124832856D02*
X173859580Y-124880475D01*
X173859580Y-124880475D02*
X173764342Y-124928094D01*
X173764342Y-124928094D02*
X173573866Y-124975713D01*
X173573866Y-124975713D02*
X173335771Y-124975713D01*
X173335771Y-124975713D02*
X173145295Y-124928094D01*
X173145295Y-124928094D02*
X173050057Y-124880475D01*
X173050057Y-124880475D02*
X173002438Y-124832856D01*
X173002438Y-124832856D02*
X172954819Y-124737618D01*
X172954819Y-124070951D02*
X172954819Y-123451904D01*
X172954819Y-123451904D02*
X173335771Y-123785237D01*
X173335771Y-123785237D02*
X173335771Y-123642380D01*
X173335771Y-123642380D02*
X173383390Y-123547142D01*
X173383390Y-123547142D02*
X173431009Y-123499523D01*
X173431009Y-123499523D02*
X173526247Y-123451904D01*
X173526247Y-123451904D02*
X173764342Y-123451904D01*
X173764342Y-123451904D02*
X173859580Y-123499523D01*
X173859580Y-123499523D02*
X173907200Y-123547142D01*
X173907200Y-123547142D02*
X173954819Y-123642380D01*
X173954819Y-123642380D02*
X173954819Y-123928094D01*
X173954819Y-123928094D02*
X173907200Y-124023332D01*
X173907200Y-124023332D02*
X173859580Y-124070951D01*
X184954819Y-148595238D02*
X184478628Y-148928571D01*
X184954819Y-149166666D02*
X183954819Y-149166666D01*
X183954819Y-149166666D02*
X183954819Y-148785714D01*
X183954819Y-148785714D02*
X184002438Y-148690476D01*
X184002438Y-148690476D02*
X184050057Y-148642857D01*
X184050057Y-148642857D02*
X184145295Y-148595238D01*
X184145295Y-148595238D02*
X184288152Y-148595238D01*
X184288152Y-148595238D02*
X184383390Y-148642857D01*
X184383390Y-148642857D02*
X184431009Y-148690476D01*
X184431009Y-148690476D02*
X184478628Y-148785714D01*
X184478628Y-148785714D02*
X184478628Y-149166666D01*
X183954819Y-148309523D02*
X184954819Y-147976190D01*
X184954819Y-147976190D02*
X183954819Y-147642857D01*
X184954819Y-146785714D02*
X184954819Y-147357142D01*
X184954819Y-147071428D02*
X183954819Y-147071428D01*
X183954819Y-147071428D02*
X184097676Y-147166666D01*
X184097676Y-147166666D02*
X184192914Y-147261904D01*
X184192914Y-147261904D02*
X184240533Y-147357142D01*
X120859580Y-125666666D02*
X120907200Y-125714285D01*
X120907200Y-125714285D02*
X120954819Y-125857142D01*
X120954819Y-125857142D02*
X120954819Y-125952380D01*
X120954819Y-125952380D02*
X120907200Y-126095237D01*
X120907200Y-126095237D02*
X120811961Y-126190475D01*
X120811961Y-126190475D02*
X120716723Y-126238094D01*
X120716723Y-126238094D02*
X120526247Y-126285713D01*
X120526247Y-126285713D02*
X120383390Y-126285713D01*
X120383390Y-126285713D02*
X120192914Y-126238094D01*
X120192914Y-126238094D02*
X120097676Y-126190475D01*
X120097676Y-126190475D02*
X120002438Y-126095237D01*
X120002438Y-126095237D02*
X119954819Y-125952380D01*
X119954819Y-125952380D02*
X119954819Y-125857142D01*
X119954819Y-125857142D02*
X120002438Y-125714285D01*
X120002438Y-125714285D02*
X120050057Y-125666666D01*
X119954819Y-125333332D02*
X119954819Y-124714285D01*
X119954819Y-124714285D02*
X120335771Y-125047618D01*
X120335771Y-125047618D02*
X120335771Y-124904761D01*
X120335771Y-124904761D02*
X120383390Y-124809523D01*
X120383390Y-124809523D02*
X120431009Y-124761904D01*
X120431009Y-124761904D02*
X120526247Y-124714285D01*
X120526247Y-124714285D02*
X120764342Y-124714285D01*
X120764342Y-124714285D02*
X120859580Y-124761904D01*
X120859580Y-124761904D02*
X120907200Y-124809523D01*
X120907200Y-124809523D02*
X120954819Y-124904761D01*
X120954819Y-124904761D02*
X120954819Y-125190475D01*
X120954819Y-125190475D02*
X120907200Y-125285713D01*
X120907200Y-125285713D02*
X120859580Y-125333332D01*
X126824819Y-137929047D02*
X126348628Y-138262380D01*
X126824819Y-138500475D02*
X125824819Y-138500475D01*
X125824819Y-138500475D02*
X125824819Y-138119523D01*
X125824819Y-138119523D02*
X125872438Y-138024285D01*
X125872438Y-138024285D02*
X125920057Y-137976666D01*
X125920057Y-137976666D02*
X126015295Y-137929047D01*
X126015295Y-137929047D02*
X126158152Y-137929047D01*
X126158152Y-137929047D02*
X126253390Y-137976666D01*
X126253390Y-137976666D02*
X126301009Y-138024285D01*
X126301009Y-138024285D02*
X126348628Y-138119523D01*
X126348628Y-138119523D02*
X126348628Y-138500475D01*
X125920057Y-137548094D02*
X125872438Y-137500475D01*
X125872438Y-137500475D02*
X125824819Y-137405237D01*
X125824819Y-137405237D02*
X125824819Y-137167142D01*
X125824819Y-137167142D02*
X125872438Y-137071904D01*
X125872438Y-137071904D02*
X125920057Y-137024285D01*
X125920057Y-137024285D02*
X126015295Y-136976666D01*
X126015295Y-136976666D02*
X126110533Y-136976666D01*
X126110533Y-136976666D02*
X126253390Y-137024285D01*
X126253390Y-137024285D02*
X126824819Y-137595713D01*
X126824819Y-137595713D02*
X126824819Y-136976666D01*
X125824819Y-136357618D02*
X125824819Y-136262380D01*
X125824819Y-136262380D02*
X125872438Y-136167142D01*
X125872438Y-136167142D02*
X125920057Y-136119523D01*
X125920057Y-136119523D02*
X126015295Y-136071904D01*
X126015295Y-136071904D02*
X126205771Y-136024285D01*
X126205771Y-136024285D02*
X126443866Y-136024285D01*
X126443866Y-136024285D02*
X126634342Y-136071904D01*
X126634342Y-136071904D02*
X126729580Y-136119523D01*
X126729580Y-136119523D02*
X126777200Y-136167142D01*
X126777200Y-136167142D02*
X126824819Y-136262380D01*
X126824819Y-136262380D02*
X126824819Y-136357618D01*
X126824819Y-136357618D02*
X126777200Y-136452856D01*
X126777200Y-136452856D02*
X126729580Y-136500475D01*
X126729580Y-136500475D02*
X126634342Y-136548094D01*
X126634342Y-136548094D02*
X126443866Y-136595713D01*
X126443866Y-136595713D02*
X126205771Y-136595713D01*
X126205771Y-136595713D02*
X126015295Y-136548094D01*
X126015295Y-136548094D02*
X125920057Y-136500475D01*
X125920057Y-136500475D02*
X125872438Y-136452856D01*
X125872438Y-136452856D02*
X125824819Y-136357618D01*
X126824819Y-135071904D02*
X126824819Y-135643332D01*
X126824819Y-135357618D02*
X125824819Y-135357618D01*
X125824819Y-135357618D02*
X125967676Y-135452856D01*
X125967676Y-135452856D02*
X126062914Y-135548094D01*
X126062914Y-135548094D02*
X126110533Y-135643332D01*
X126824819Y-125309047D02*
X126348628Y-125642380D01*
X126824819Y-125880475D02*
X125824819Y-125880475D01*
X125824819Y-125880475D02*
X125824819Y-125499523D01*
X125824819Y-125499523D02*
X125872438Y-125404285D01*
X125872438Y-125404285D02*
X125920057Y-125356666D01*
X125920057Y-125356666D02*
X126015295Y-125309047D01*
X126015295Y-125309047D02*
X126158152Y-125309047D01*
X126158152Y-125309047D02*
X126253390Y-125356666D01*
X126253390Y-125356666D02*
X126301009Y-125404285D01*
X126301009Y-125404285D02*
X126348628Y-125499523D01*
X126348628Y-125499523D02*
X126348628Y-125880475D01*
X126824819Y-124356666D02*
X126824819Y-124928094D01*
X126824819Y-124642380D02*
X125824819Y-124642380D01*
X125824819Y-124642380D02*
X125967676Y-124737618D01*
X125967676Y-124737618D02*
X126062914Y-124832856D01*
X126062914Y-124832856D02*
X126110533Y-124928094D01*
X125824819Y-123737618D02*
X125824819Y-123642380D01*
X125824819Y-123642380D02*
X125872438Y-123547142D01*
X125872438Y-123547142D02*
X125920057Y-123499523D01*
X125920057Y-123499523D02*
X126015295Y-123451904D01*
X126015295Y-123451904D02*
X126205771Y-123404285D01*
X126205771Y-123404285D02*
X126443866Y-123404285D01*
X126443866Y-123404285D02*
X126634342Y-123451904D01*
X126634342Y-123451904D02*
X126729580Y-123499523D01*
X126729580Y-123499523D02*
X126777200Y-123547142D01*
X126777200Y-123547142D02*
X126824819Y-123642380D01*
X126824819Y-123642380D02*
X126824819Y-123737618D01*
X126824819Y-123737618D02*
X126777200Y-123832856D01*
X126777200Y-123832856D02*
X126729580Y-123880475D01*
X126729580Y-123880475D02*
X126634342Y-123928094D01*
X126634342Y-123928094D02*
X126443866Y-123975713D01*
X126443866Y-123975713D02*
X126205771Y-123975713D01*
X126205771Y-123975713D02*
X126015295Y-123928094D01*
X126015295Y-123928094D02*
X125920057Y-123880475D01*
X125920057Y-123880475D02*
X125872438Y-123832856D01*
X125872438Y-123832856D02*
X125824819Y-123737618D01*
X125824819Y-123070951D02*
X125824819Y-122451904D01*
X125824819Y-122451904D02*
X126205771Y-122785237D01*
X126205771Y-122785237D02*
X126205771Y-122642380D01*
X126205771Y-122642380D02*
X126253390Y-122547142D01*
X126253390Y-122547142D02*
X126301009Y-122499523D01*
X126301009Y-122499523D02*
X126396247Y-122451904D01*
X126396247Y-122451904D02*
X126634342Y-122451904D01*
X126634342Y-122451904D02*
X126729580Y-122499523D01*
X126729580Y-122499523D02*
X126777200Y-122547142D01*
X126777200Y-122547142D02*
X126824819Y-122642380D01*
X126824819Y-122642380D02*
X126824819Y-122928094D01*
X126824819Y-122928094D02*
X126777200Y-123023332D01*
X126777200Y-123023332D02*
X126729580Y-123070951D01*
X139454819Y-152333333D02*
X140169104Y-152333333D01*
X140169104Y-152333333D02*
X140311961Y-152380952D01*
X140311961Y-152380952D02*
X140407200Y-152476190D01*
X140407200Y-152476190D02*
X140454819Y-152619047D01*
X140454819Y-152619047D02*
X140454819Y-152714285D01*
X139454819Y-151952380D02*
X139454819Y-151333333D01*
X139454819Y-151333333D02*
X139835771Y-151666666D01*
X139835771Y-151666666D02*
X139835771Y-151523809D01*
X139835771Y-151523809D02*
X139883390Y-151428571D01*
X139883390Y-151428571D02*
X139931009Y-151380952D01*
X139931009Y-151380952D02*
X140026247Y-151333333D01*
X140026247Y-151333333D02*
X140264342Y-151333333D01*
X140264342Y-151333333D02*
X140359580Y-151380952D01*
X140359580Y-151380952D02*
X140407200Y-151428571D01*
X140407200Y-151428571D02*
X140454819Y-151523809D01*
X140454819Y-151523809D02*
X140454819Y-151809523D01*
X140454819Y-151809523D02*
X140407200Y-151904761D01*
X140407200Y-151904761D02*
X140359580Y-151952380D01*
X150414819Y-117008094D02*
X149414819Y-117008094D01*
X149414819Y-117008094D02*
X149414819Y-116769999D01*
X149414819Y-116769999D02*
X149462438Y-116627142D01*
X149462438Y-116627142D02*
X149557676Y-116531904D01*
X149557676Y-116531904D02*
X149652914Y-116484285D01*
X149652914Y-116484285D02*
X149843390Y-116436666D01*
X149843390Y-116436666D02*
X149986247Y-116436666D01*
X149986247Y-116436666D02*
X150176723Y-116484285D01*
X150176723Y-116484285D02*
X150271961Y-116531904D01*
X150271961Y-116531904D02*
X150367200Y-116627142D01*
X150367200Y-116627142D02*
X150414819Y-116769999D01*
X150414819Y-116769999D02*
X150414819Y-117008094D01*
X150414819Y-115484285D02*
X150414819Y-116055713D01*
X150414819Y-115769999D02*
X149414819Y-115769999D01*
X149414819Y-115769999D02*
X149557676Y-115865237D01*
X149557676Y-115865237D02*
X149652914Y-115960475D01*
X149652914Y-115960475D02*
X149700533Y-116055713D01*
D12*
%TO.C,TP2*%
X138700000Y-105000000D02*
G75*
G02*
X135300000Y-105000000I-1700000J0D01*
G01*
X135300000Y-105000000D02*
G75*
G02*
X138700000Y-105000000I1700000J0D01*
G01*
%TO.C,C4*%
X116630000Y-136030000D02*
X116630000Y-140970000D01*
X116945000Y-136030000D02*
X116630000Y-136030000D01*
X116945000Y-140970000D02*
X116630000Y-140970000D01*
X119370000Y-136030000D02*
X119055000Y-136030000D01*
X119370000Y-136030000D02*
X119370000Y-140970000D01*
X119370000Y-140970000D02*
X119055000Y-140970000D01*
%TO.C,IC1*%
X144350000Y-123860000D02*
X144350000Y-134140000D01*
X144350000Y-134140000D02*
X149650000Y-134140000D01*
X146000000Y-123860000D02*
X144350000Y-123860000D01*
X149650000Y-123860000D02*
X148000000Y-123860000D01*
X149650000Y-134140000D02*
X149650000Y-123860000D01*
X141860000Y-123800000D02*
X152140000Y-123800000D01*
X152140000Y-134200000D01*
X141860000Y-134200000D01*
X141860000Y-123800000D01*
X148000000Y-123860000D02*
G75*
G02*
X146000000Y-123860000I-1000000J0D01*
G01*
%TO.C,IC2*%
X156060000Y-116700000D02*
X159910000Y-116700000D01*
X155643600Y-113901193D02*
G75*
G02*
X158000000Y-112400000I2356400J-1098807D01*
G01*
X156060000Y-116700000D02*
G75*
G02*
X155677369Y-116122045I1940000J1700000D01*
G01*
X158000000Y-112400000D02*
G75*
G02*
X160356400Y-113901193I0J-2600000D01*
G01*
X160302383Y-116112264D02*
G75*
G02*
X159910000Y-116700000I-2302383J1112264D01*
G01*
%TO.C,C201*%
X154880000Y-131880000D02*
X154880000Y-139120000D01*
X161120000Y-131880000D02*
X154880000Y-131880000D01*
X161120000Y-131880000D02*
X161120000Y-139120000D01*
X161120000Y-139120000D02*
X154880000Y-139120000D01*
%TO.C,R102*%
X127630000Y-120920000D02*
X127630000Y-127460000D01*
X127630000Y-127460000D02*
X127960000Y-127460000D01*
X127960000Y-120920000D02*
X127630000Y-120920000D01*
X130040000Y-120920000D02*
X130370000Y-120920000D01*
X130370000Y-120920000D02*
X130370000Y-127460000D01*
X130370000Y-127460000D02*
X130040000Y-127460000D01*
%TO.C,C1*%
X104419000Y-138599000D02*
X104419000Y-137401000D01*
X104459000Y-138862000D02*
X104459000Y-137138000D01*
X104499000Y-139062000D02*
X104499000Y-136938000D01*
X104539000Y-139230000D02*
X104539000Y-136770000D01*
X104579000Y-139378000D02*
X104579000Y-136622000D01*
X104619000Y-139510000D02*
X104619000Y-136490000D01*
X104659000Y-139630000D02*
X104659000Y-136370000D01*
X104699000Y-139742000D02*
X104699000Y-136258000D01*
X104739000Y-139846000D02*
X104739000Y-136154000D01*
X104779000Y-139944000D02*
X104779000Y-136056000D01*
X104819000Y-140037000D02*
X104819000Y-135963000D01*
X104859000Y-140125000D02*
X104859000Y-135875000D01*
X104899000Y-140209000D02*
X104899000Y-135791000D01*
X104939000Y-140289000D02*
X104939000Y-135711000D01*
X104979000Y-140365000D02*
X104979000Y-135635000D01*
X105019000Y-140439000D02*
X105019000Y-135561000D01*
X105059000Y-140510000D02*
X105059000Y-135490000D01*
X105099000Y-140579000D02*
X105099000Y-135421000D01*
X105139000Y-140645000D02*
X105139000Y-135355000D01*
X105179000Y-140709000D02*
X105179000Y-135291000D01*
X105219000Y-140770000D02*
X105219000Y-135230000D01*
X105259000Y-140830000D02*
X105259000Y-135170000D01*
X105299000Y-140889000D02*
X105299000Y-135111000D01*
X105339000Y-140945000D02*
X105339000Y-135055000D01*
X105379000Y-141000000D02*
X105379000Y-135000000D01*
X105419000Y-141054000D02*
X105419000Y-134946000D01*
X105459000Y-141106000D02*
X105459000Y-134894000D01*
X105499000Y-141156000D02*
X105499000Y-134844000D01*
X105539000Y-141206000D02*
X105539000Y-134794000D01*
X105579000Y-141254000D02*
X105579000Y-134746000D01*
X105619000Y-141301000D02*
X105619000Y-134699000D01*
X105659000Y-141347000D02*
X105659000Y-134653000D01*
X105699000Y-141392000D02*
X105699000Y-134608000D01*
X105739000Y-141436000D02*
X105739000Y-134564000D01*
X105779000Y-136759000D02*
X105779000Y-134522000D01*
X105779000Y-141478000D02*
X105779000Y-139241000D01*
X105819000Y-136759000D02*
X105819000Y-134480000D01*
X105819000Y-141520000D02*
X105819000Y-139241000D01*
X105859000Y-136759000D02*
X105859000Y-134439000D01*
X105859000Y-141561000D02*
X105859000Y-139241000D01*
X105899000Y-136759000D02*
X105899000Y-134399000D01*
X105899000Y-141601000D02*
X105899000Y-139241000D01*
X105939000Y-136759000D02*
X105939000Y-134360000D01*
X105939000Y-141640000D02*
X105939000Y-139241000D01*
X105979000Y-136759000D02*
X105979000Y-134321000D01*
X105979000Y-141679000D02*
X105979000Y-139241000D01*
X106019000Y-136759000D02*
X106019000Y-134284000D01*
X106019000Y-141716000D02*
X106019000Y-139241000D01*
X106059000Y-136759000D02*
X106059000Y-134247000D01*
X106059000Y-141753000D02*
X106059000Y-139241000D01*
X106099000Y-136759000D02*
X106099000Y-134211000D01*
X106099000Y-141789000D02*
X106099000Y-139241000D01*
X106139000Y-136759000D02*
X106139000Y-134176000D01*
X106139000Y-141824000D02*
X106139000Y-139241000D01*
X106179000Y-136759000D02*
X106179000Y-134142000D01*
X106179000Y-141858000D02*
X106179000Y-139241000D01*
X106219000Y-136759000D02*
X106219000Y-134108000D01*
X106219000Y-141892000D02*
X106219000Y-139241000D01*
X106259000Y-136759000D02*
X106259000Y-134075000D01*
X106259000Y-141925000D02*
X106259000Y-139241000D01*
X106299000Y-136759000D02*
X106299000Y-134043000D01*
X106299000Y-141957000D02*
X106299000Y-139241000D01*
X106339000Y-136759000D02*
X106339000Y-134011000D01*
X106339000Y-141989000D02*
X106339000Y-139241000D01*
X106379000Y-136759000D02*
X106379000Y-133980000D01*
X106379000Y-142020000D02*
X106379000Y-139241000D01*
X106419000Y-136759000D02*
X106419000Y-133950000D01*
X106419000Y-142050000D02*
X106419000Y-139241000D01*
X106459000Y-136759000D02*
X106459000Y-133920000D01*
X106459000Y-142080000D02*
X106459000Y-139241000D01*
X106499000Y-136759000D02*
X106499000Y-133890000D01*
X106499000Y-142110000D02*
X106499000Y-139241000D01*
X106539000Y-136759000D02*
X106539000Y-133862000D01*
X106539000Y-142138000D02*
X106539000Y-139241000D01*
X106579000Y-136759000D02*
X106579000Y-133834000D01*
X106579000Y-142166000D02*
X106579000Y-139241000D01*
X106619000Y-136759000D02*
X106619000Y-133806000D01*
X106619000Y-142194000D02*
X106619000Y-139241000D01*
X106659000Y-136759000D02*
X106659000Y-133779000D01*
X106659000Y-142221000D02*
X106659000Y-139241000D01*
X106699000Y-136759000D02*
X106699000Y-133753000D01*
X106699000Y-142247000D02*
X106699000Y-139241000D01*
X106739000Y-136759000D02*
X106739000Y-133727000D01*
X106739000Y-142273000D02*
X106739000Y-139241000D01*
X106779000Y-136759000D02*
X106779000Y-133702000D01*
X106779000Y-142298000D02*
X106779000Y-139241000D01*
X106819000Y-136759000D02*
X106819000Y-133677000D01*
X106819000Y-142323000D02*
X106819000Y-139241000D01*
X106859000Y-136759000D02*
X106859000Y-133653000D01*
X106859000Y-142347000D02*
X106859000Y-139241000D01*
X106899000Y-136759000D02*
X106899000Y-133629000D01*
X106899000Y-142371000D02*
X106899000Y-139241000D01*
X106939000Y-136759000D02*
X106939000Y-133605000D01*
X106939000Y-142395000D02*
X106939000Y-139241000D01*
X106979000Y-136759000D02*
X106979000Y-133583000D01*
X106979000Y-142417000D02*
X106979000Y-139241000D01*
X107019000Y-136759000D02*
X107019000Y-133560000D01*
X107019000Y-142440000D02*
X107019000Y-139241000D01*
X107059000Y-136759000D02*
X107059000Y-133538000D01*
X107059000Y-142462000D02*
X107059000Y-139241000D01*
X107099000Y-136759000D02*
X107099000Y-133517000D01*
X107099000Y-142483000D02*
X107099000Y-139241000D01*
X107139000Y-136759000D02*
X107139000Y-133496000D01*
X107139000Y-142504000D02*
X107139000Y-139241000D01*
X107179000Y-136759000D02*
X107179000Y-133475000D01*
X107179000Y-142525000D02*
X107179000Y-139241000D01*
X107219000Y-136759000D02*
X107219000Y-133455000D01*
X107219000Y-142545000D02*
X107219000Y-139241000D01*
X107259000Y-136759000D02*
X107259000Y-133436000D01*
X107259000Y-142564000D02*
X107259000Y-139241000D01*
X107299000Y-136759000D02*
X107299000Y-133416000D01*
X107299000Y-142584000D02*
X107299000Y-139241000D01*
X107339000Y-136759000D02*
X107339000Y-133397000D01*
X107339000Y-142603000D02*
X107339000Y-139241000D01*
X107379000Y-136759000D02*
X107379000Y-133379000D01*
X107379000Y-142621000D02*
X107379000Y-139241000D01*
X107419000Y-136759000D02*
X107419000Y-133361000D01*
X107419000Y-142639000D02*
X107419000Y-139241000D01*
X107459000Y-136759000D02*
X107459000Y-133343000D01*
X107459000Y-142657000D02*
X107459000Y-139241000D01*
X107499000Y-136759000D02*
X107499000Y-133326000D01*
X107499000Y-142674000D02*
X107499000Y-139241000D01*
X107539000Y-136759000D02*
X107539000Y-133310000D01*
X107539000Y-142690000D02*
X107539000Y-139241000D01*
X107579000Y-136759000D02*
X107579000Y-133293000D01*
X107579000Y-142707000D02*
X107579000Y-139241000D01*
X107619000Y-136759000D02*
X107619000Y-133277000D01*
X107619000Y-142723000D02*
X107619000Y-139241000D01*
X107659000Y-136759000D02*
X107659000Y-133262000D01*
X107659000Y-142738000D02*
X107659000Y-139241000D01*
X107699000Y-136759000D02*
X107699000Y-133246000D01*
X107699000Y-142754000D02*
X107699000Y-139241000D01*
X107739000Y-136759000D02*
X107739000Y-133232000D01*
X107739000Y-142768000D02*
X107739000Y-139241000D01*
X107779000Y-136759000D02*
X107779000Y-133217000D01*
X107779000Y-142783000D02*
X107779000Y-139241000D01*
X107819000Y-136759000D02*
X107819000Y-133203000D01*
X107819000Y-142797000D02*
X107819000Y-139241000D01*
X107859000Y-136759000D02*
X107859000Y-133189000D01*
X107859000Y-142811000D02*
X107859000Y-139241000D01*
X107899000Y-136759000D02*
X107899000Y-133176000D01*
X107899000Y-142824000D02*
X107899000Y-139241000D01*
X107939000Y-136759000D02*
X107939000Y-133163000D01*
X107939000Y-142837000D02*
X107939000Y-139241000D01*
X107979000Y-136759000D02*
X107979000Y-133150000D01*
X107979000Y-142850000D02*
X107979000Y-139241000D01*
X108019000Y-136759000D02*
X108019000Y-133138000D01*
X108019000Y-142862000D02*
X108019000Y-139241000D01*
X108059000Y-136759000D02*
X108059000Y-133126000D01*
X108059000Y-142874000D02*
X108059000Y-139241000D01*
X108099000Y-136759000D02*
X108099000Y-133115000D01*
X108099000Y-142885000D02*
X108099000Y-139241000D01*
X108139000Y-136759000D02*
X108139000Y-133103000D01*
X108139000Y-142897000D02*
X108139000Y-139241000D01*
X108179000Y-136759000D02*
X108179000Y-133093000D01*
X108179000Y-142907000D02*
X108179000Y-139241000D01*
X108219000Y-136759000D02*
X108219000Y-133082000D01*
X108219000Y-142918000D02*
X108219000Y-139241000D01*
X108259000Y-142928000D02*
X108259000Y-133072000D01*
X108299000Y-142938000D02*
X108299000Y-133062000D01*
X108339000Y-142947000D02*
X108339000Y-133053000D01*
X108379000Y-142956000D02*
X108379000Y-133044000D01*
X108419000Y-142965000D02*
X108419000Y-133035000D01*
X108459000Y-142974000D02*
X108459000Y-133026000D01*
X108499000Y-142982000D02*
X108499000Y-133018000D01*
X108539000Y-142990000D02*
X108539000Y-133010000D01*
X108579000Y-142997000D02*
X108579000Y-133003000D01*
X108619000Y-143004000D02*
X108619000Y-132996000D01*
X108659000Y-143011000D02*
X108659000Y-132989000D01*
X108699000Y-143018000D02*
X108699000Y-132982000D01*
X108739000Y-143024000D02*
X108739000Y-132976000D01*
X108779000Y-143030000D02*
X108779000Y-132970000D01*
X108820000Y-143035000D02*
X108820000Y-132965000D01*
X108860000Y-143040000D02*
X108860000Y-132960000D01*
X108900000Y-143045000D02*
X108900000Y-132955000D01*
X108940000Y-143050000D02*
X108940000Y-132950000D01*
X108980000Y-143054000D02*
X108980000Y-132946000D01*
X109020000Y-143058000D02*
X109020000Y-132942000D01*
X109060000Y-143062000D02*
X109060000Y-132938000D01*
X109100000Y-143065000D02*
X109100000Y-132935000D01*
X109140000Y-143068000D02*
X109140000Y-132932000D01*
X109180000Y-143070000D02*
X109180000Y-132930000D01*
X109220000Y-143073000D02*
X109220000Y-132927000D01*
X109260000Y-143075000D02*
X109260000Y-132925000D01*
X109300000Y-143077000D02*
X109300000Y-132923000D01*
X109340000Y-143078000D02*
X109340000Y-132922000D01*
X109380000Y-143079000D02*
X109380000Y-132921000D01*
X109420000Y-143080000D02*
X109420000Y-132920000D01*
X109460000Y-143080000D02*
X109460000Y-132920000D01*
X109500000Y-143080000D02*
X109500000Y-132920000D01*
X114479646Y-141375000D02*
X114479646Y-140375000D01*
X114979646Y-140875000D02*
X113979646Y-140875000D01*
X114620000Y-138000000D02*
G75*
G02*
X104380000Y-138000000I-5120000J0D01*
G01*
X104380000Y-138000000D02*
G75*
G02*
X114620000Y-138000000I5120000J0D01*
G01*
%TO.C,C2*%
X104419000Y-125599000D02*
X104419000Y-124401000D01*
X104459000Y-125862000D02*
X104459000Y-124138000D01*
X104499000Y-126062000D02*
X104499000Y-123938000D01*
X104539000Y-126230000D02*
X104539000Y-123770000D01*
X104579000Y-126378000D02*
X104579000Y-123622000D01*
X104619000Y-126510000D02*
X104619000Y-123490000D01*
X104659000Y-126630000D02*
X104659000Y-123370000D01*
X104699000Y-126742000D02*
X104699000Y-123258000D01*
X104739000Y-126846000D02*
X104739000Y-123154000D01*
X104779000Y-126944000D02*
X104779000Y-123056000D01*
X104819000Y-127037000D02*
X104819000Y-122963000D01*
X104859000Y-127125000D02*
X104859000Y-122875000D01*
X104899000Y-127209000D02*
X104899000Y-122791000D01*
X104939000Y-127289000D02*
X104939000Y-122711000D01*
X104979000Y-127365000D02*
X104979000Y-122635000D01*
X105019000Y-127439000D02*
X105019000Y-122561000D01*
X105059000Y-127510000D02*
X105059000Y-122490000D01*
X105099000Y-127579000D02*
X105099000Y-122421000D01*
X105139000Y-127645000D02*
X105139000Y-122355000D01*
X105179000Y-127709000D02*
X105179000Y-122291000D01*
X105219000Y-127770000D02*
X105219000Y-122230000D01*
X105259000Y-127830000D02*
X105259000Y-122170000D01*
X105299000Y-127889000D02*
X105299000Y-122111000D01*
X105339000Y-127945000D02*
X105339000Y-122055000D01*
X105379000Y-128000000D02*
X105379000Y-122000000D01*
X105419000Y-128054000D02*
X105419000Y-121946000D01*
X105459000Y-128106000D02*
X105459000Y-121894000D01*
X105499000Y-128156000D02*
X105499000Y-121844000D01*
X105539000Y-128206000D02*
X105539000Y-121794000D01*
X105579000Y-128254000D02*
X105579000Y-121746000D01*
X105619000Y-128301000D02*
X105619000Y-121699000D01*
X105659000Y-128347000D02*
X105659000Y-121653000D01*
X105699000Y-128392000D02*
X105699000Y-121608000D01*
X105739000Y-128436000D02*
X105739000Y-121564000D01*
X105779000Y-123759000D02*
X105779000Y-121522000D01*
X105779000Y-128478000D02*
X105779000Y-126241000D01*
X105819000Y-123759000D02*
X105819000Y-121480000D01*
X105819000Y-128520000D02*
X105819000Y-126241000D01*
X105859000Y-123759000D02*
X105859000Y-121439000D01*
X105859000Y-128561000D02*
X105859000Y-126241000D01*
X105899000Y-123759000D02*
X105899000Y-121399000D01*
X105899000Y-128601000D02*
X105899000Y-126241000D01*
X105939000Y-123759000D02*
X105939000Y-121360000D01*
X105939000Y-128640000D02*
X105939000Y-126241000D01*
X105979000Y-123759000D02*
X105979000Y-121321000D01*
X105979000Y-128679000D02*
X105979000Y-126241000D01*
X106019000Y-123759000D02*
X106019000Y-121284000D01*
X106019000Y-128716000D02*
X106019000Y-126241000D01*
X106059000Y-123759000D02*
X106059000Y-121247000D01*
X106059000Y-128753000D02*
X106059000Y-126241000D01*
X106099000Y-123759000D02*
X106099000Y-121211000D01*
X106099000Y-128789000D02*
X106099000Y-126241000D01*
X106139000Y-123759000D02*
X106139000Y-121176000D01*
X106139000Y-128824000D02*
X106139000Y-126241000D01*
X106179000Y-123759000D02*
X106179000Y-121142000D01*
X106179000Y-128858000D02*
X106179000Y-126241000D01*
X106219000Y-123759000D02*
X106219000Y-121108000D01*
X106219000Y-128892000D02*
X106219000Y-126241000D01*
X106259000Y-123759000D02*
X106259000Y-121075000D01*
X106259000Y-128925000D02*
X106259000Y-126241000D01*
X106299000Y-123759000D02*
X106299000Y-121043000D01*
X106299000Y-128957000D02*
X106299000Y-126241000D01*
X106339000Y-123759000D02*
X106339000Y-121011000D01*
X106339000Y-128989000D02*
X106339000Y-126241000D01*
X106379000Y-123759000D02*
X106379000Y-120980000D01*
X106379000Y-129020000D02*
X106379000Y-126241000D01*
X106419000Y-123759000D02*
X106419000Y-120950000D01*
X106419000Y-129050000D02*
X106419000Y-126241000D01*
X106459000Y-123759000D02*
X106459000Y-120920000D01*
X106459000Y-129080000D02*
X106459000Y-126241000D01*
X106499000Y-123759000D02*
X106499000Y-120890000D01*
X106499000Y-129110000D02*
X106499000Y-126241000D01*
X106539000Y-123759000D02*
X106539000Y-120862000D01*
X106539000Y-129138000D02*
X106539000Y-126241000D01*
X106579000Y-123759000D02*
X106579000Y-120834000D01*
X106579000Y-129166000D02*
X106579000Y-126241000D01*
X106619000Y-123759000D02*
X106619000Y-120806000D01*
X106619000Y-129194000D02*
X106619000Y-126241000D01*
X106659000Y-123759000D02*
X106659000Y-120779000D01*
X106659000Y-129221000D02*
X106659000Y-126241000D01*
X106699000Y-123759000D02*
X106699000Y-120753000D01*
X106699000Y-129247000D02*
X106699000Y-126241000D01*
X106739000Y-123759000D02*
X106739000Y-120727000D01*
X106739000Y-129273000D02*
X106739000Y-126241000D01*
X106779000Y-123759000D02*
X106779000Y-120702000D01*
X106779000Y-129298000D02*
X106779000Y-126241000D01*
X106819000Y-123759000D02*
X106819000Y-120677000D01*
X106819000Y-129323000D02*
X106819000Y-126241000D01*
X106859000Y-123759000D02*
X106859000Y-120653000D01*
X106859000Y-129347000D02*
X106859000Y-126241000D01*
X106899000Y-123759000D02*
X106899000Y-120629000D01*
X106899000Y-129371000D02*
X106899000Y-126241000D01*
X106939000Y-123759000D02*
X106939000Y-120605000D01*
X106939000Y-129395000D02*
X106939000Y-126241000D01*
X106979000Y-123759000D02*
X106979000Y-120583000D01*
X106979000Y-129417000D02*
X106979000Y-126241000D01*
X107019000Y-123759000D02*
X107019000Y-120560000D01*
X107019000Y-129440000D02*
X107019000Y-126241000D01*
X107059000Y-123759000D02*
X107059000Y-120538000D01*
X107059000Y-129462000D02*
X107059000Y-126241000D01*
X107099000Y-123759000D02*
X107099000Y-120517000D01*
X107099000Y-129483000D02*
X107099000Y-126241000D01*
X107139000Y-123759000D02*
X107139000Y-120496000D01*
X107139000Y-129504000D02*
X107139000Y-126241000D01*
X107179000Y-123759000D02*
X107179000Y-120475000D01*
X107179000Y-129525000D02*
X107179000Y-126241000D01*
X107219000Y-123759000D02*
X107219000Y-120455000D01*
X107219000Y-129545000D02*
X107219000Y-126241000D01*
X107259000Y-123759000D02*
X107259000Y-120436000D01*
X107259000Y-129564000D02*
X107259000Y-126241000D01*
X107299000Y-123759000D02*
X107299000Y-120416000D01*
X107299000Y-129584000D02*
X107299000Y-126241000D01*
X107339000Y-123759000D02*
X107339000Y-120397000D01*
X107339000Y-129603000D02*
X107339000Y-126241000D01*
X107379000Y-123759000D02*
X107379000Y-120379000D01*
X107379000Y-129621000D02*
X107379000Y-126241000D01*
X107419000Y-123759000D02*
X107419000Y-120361000D01*
X107419000Y-129639000D02*
X107419000Y-126241000D01*
X107459000Y-123759000D02*
X107459000Y-120343000D01*
X107459000Y-129657000D02*
X107459000Y-126241000D01*
X107499000Y-123759000D02*
X107499000Y-120326000D01*
X107499000Y-129674000D02*
X107499000Y-126241000D01*
X107539000Y-123759000D02*
X107539000Y-120310000D01*
X107539000Y-129690000D02*
X107539000Y-126241000D01*
X107579000Y-123759000D02*
X107579000Y-120293000D01*
X107579000Y-129707000D02*
X107579000Y-126241000D01*
X107619000Y-123759000D02*
X107619000Y-120277000D01*
X107619000Y-129723000D02*
X107619000Y-126241000D01*
X107659000Y-123759000D02*
X107659000Y-120262000D01*
X107659000Y-129738000D02*
X107659000Y-126241000D01*
X107699000Y-123759000D02*
X107699000Y-120246000D01*
X107699000Y-129754000D02*
X107699000Y-126241000D01*
X107739000Y-123759000D02*
X107739000Y-120232000D01*
X107739000Y-129768000D02*
X107739000Y-126241000D01*
X107779000Y-123759000D02*
X107779000Y-120217000D01*
X107779000Y-129783000D02*
X107779000Y-126241000D01*
X107819000Y-123759000D02*
X107819000Y-120203000D01*
X107819000Y-129797000D02*
X107819000Y-126241000D01*
X107859000Y-123759000D02*
X107859000Y-120189000D01*
X107859000Y-129811000D02*
X107859000Y-126241000D01*
X107899000Y-123759000D02*
X107899000Y-120176000D01*
X107899000Y-129824000D02*
X107899000Y-126241000D01*
X107939000Y-123759000D02*
X107939000Y-120163000D01*
X107939000Y-129837000D02*
X107939000Y-126241000D01*
X107979000Y-123759000D02*
X107979000Y-120150000D01*
X107979000Y-129850000D02*
X107979000Y-126241000D01*
X108019000Y-123759000D02*
X108019000Y-120138000D01*
X108019000Y-129862000D02*
X108019000Y-126241000D01*
X108059000Y-123759000D02*
X108059000Y-120126000D01*
X108059000Y-129874000D02*
X108059000Y-126241000D01*
X108099000Y-123759000D02*
X108099000Y-120115000D01*
X108099000Y-129885000D02*
X108099000Y-126241000D01*
X108139000Y-123759000D02*
X108139000Y-120103000D01*
X108139000Y-129897000D02*
X108139000Y-126241000D01*
X108179000Y-123759000D02*
X108179000Y-120093000D01*
X108179000Y-129907000D02*
X108179000Y-126241000D01*
X108219000Y-123759000D02*
X108219000Y-120082000D01*
X108219000Y-129918000D02*
X108219000Y-126241000D01*
X108259000Y-129928000D02*
X108259000Y-120072000D01*
X108299000Y-129938000D02*
X108299000Y-120062000D01*
X108339000Y-129947000D02*
X108339000Y-120053000D01*
X108379000Y-129956000D02*
X108379000Y-120044000D01*
X108419000Y-129965000D02*
X108419000Y-120035000D01*
X108459000Y-129974000D02*
X108459000Y-120026000D01*
X108499000Y-129982000D02*
X108499000Y-120018000D01*
X108539000Y-129990000D02*
X108539000Y-120010000D01*
X108579000Y-129997000D02*
X108579000Y-120003000D01*
X108619000Y-130004000D02*
X108619000Y-119996000D01*
X108659000Y-130011000D02*
X108659000Y-119989000D01*
X108699000Y-130018000D02*
X108699000Y-119982000D01*
X108739000Y-130024000D02*
X108739000Y-119976000D01*
X108779000Y-130030000D02*
X108779000Y-119970000D01*
X108820000Y-130035000D02*
X108820000Y-119965000D01*
X108860000Y-130040000D02*
X108860000Y-119960000D01*
X108900000Y-130045000D02*
X108900000Y-119955000D01*
X108940000Y-130050000D02*
X108940000Y-119950000D01*
X108980000Y-130054000D02*
X108980000Y-119946000D01*
X109020000Y-130058000D02*
X109020000Y-119942000D01*
X109060000Y-130062000D02*
X109060000Y-119938000D01*
X109100000Y-130065000D02*
X109100000Y-119935000D01*
X109140000Y-130068000D02*
X109140000Y-119932000D01*
X109180000Y-130070000D02*
X109180000Y-119930000D01*
X109220000Y-130073000D02*
X109220000Y-119927000D01*
X109260000Y-130075000D02*
X109260000Y-119925000D01*
X109300000Y-130077000D02*
X109300000Y-119923000D01*
X109340000Y-130078000D02*
X109340000Y-119922000D01*
X109380000Y-130079000D02*
X109380000Y-119921000D01*
X109420000Y-130080000D02*
X109420000Y-119920000D01*
X109460000Y-130080000D02*
X109460000Y-119920000D01*
X109500000Y-130080000D02*
X109500000Y-119920000D01*
X114479646Y-128375000D02*
X114479646Y-127375000D01*
X114979646Y-127875000D02*
X113979646Y-127875000D01*
X114620000Y-125000000D02*
G75*
G02*
X104380000Y-125000000I-5120000J0D01*
G01*
X104380000Y-125000000D02*
G75*
G02*
X114620000Y-125000000I5120000J0D01*
G01*
%TO.C,R101*%
X127630000Y-133540000D02*
X127630000Y-140080000D01*
X127630000Y-140080000D02*
X127960000Y-140080000D01*
X127960000Y-133540000D02*
X127630000Y-133540000D01*
X130040000Y-133540000D02*
X130370000Y-133540000D01*
X130370000Y-133540000D02*
X130370000Y-140080000D01*
X130370000Y-140080000D02*
X130040000Y-140080000D01*
%TO.C,J1*%
X112357500Y-98200000D02*
X121557500Y-98200000D01*
X112357500Y-107000000D02*
X112357500Y-98200000D01*
X112357500Y-112900000D02*
X112357500Y-111000000D01*
X115057500Y-112900000D02*
X112357500Y-112900000D01*
X120707500Y-113100000D02*
X121757500Y-113100000D01*
X121557500Y-98200000D02*
X121557500Y-112900000D01*
X121557500Y-112900000D02*
X118957500Y-112900000D01*
X121757500Y-112050000D02*
X121757500Y-113100000D01*
%TO.C,C102*%
X134630000Y-123030000D02*
X134630000Y-127970000D01*
X134945000Y-123030000D02*
X134630000Y-123030000D01*
X134945000Y-127970000D02*
X134630000Y-127970000D01*
X137370000Y-123030000D02*
X137055000Y-123030000D01*
X137370000Y-123030000D02*
X137370000Y-127970000D01*
X137370000Y-127970000D02*
X137055000Y-127970000D01*
%TO.C,R104*%
X168630000Y-140920000D02*
X168630000Y-147460000D01*
X168630000Y-147460000D02*
X168960000Y-147460000D01*
X168960000Y-140920000D02*
X168630000Y-140920000D01*
X171040000Y-140920000D02*
X171370000Y-140920000D01*
X171370000Y-140920000D02*
X171370000Y-147460000D01*
X171370000Y-147460000D02*
X171040000Y-147460000D01*
%TO.C,R1*%
X134540000Y-113630000D02*
X141080000Y-113630000D01*
X134540000Y-113960000D02*
X134540000Y-113630000D01*
X134540000Y-116040000D02*
X134540000Y-116370000D01*
X134540000Y-116370000D02*
X141080000Y-116370000D01*
X141080000Y-113630000D02*
X141080000Y-113960000D01*
X141080000Y-116370000D02*
X141080000Y-116040000D01*
%TO.C,C202*%
X156630000Y-123530000D02*
X156630000Y-128470000D01*
X156945000Y-123530000D02*
X156630000Y-123530000D01*
X156945000Y-128470000D02*
X156630000Y-128470000D01*
X159370000Y-123530000D02*
X159055000Y-123530000D01*
X159370000Y-123530000D02*
X159370000Y-128470000D01*
X159370000Y-128470000D02*
X159055000Y-128470000D01*
%TO.C,TP3*%
X148700000Y-105000000D02*
G75*
G02*
X145300000Y-105000000I-1700000J0D01*
G01*
X145300000Y-105000000D02*
G75*
G02*
X148700000Y-105000000I1700000J0D01*
G01*
%TO.C,J2*%
X166500000Y-100850000D02*
X166500000Y-113850000D01*
X167300000Y-98850000D02*
X167300000Y-100850000D01*
X167300000Y-100850000D02*
X166500000Y-100850000D01*
X172000000Y-98850000D02*
X167300000Y-98850000D01*
X172000000Y-98850000D02*
X172300000Y-98850000D01*
X172300000Y-98850000D02*
X172300000Y-100850000D01*
X172300000Y-100850000D02*
X173100000Y-100850000D01*
X173100000Y-100850000D02*
X173100000Y-113850000D01*
X173100000Y-113850000D02*
X166500000Y-113850000D01*
%TO.C,C101*%
X132880000Y-131880000D02*
X132880000Y-139120000D01*
X139120000Y-131880000D02*
X132880000Y-131880000D01*
X139120000Y-131880000D02*
X139120000Y-139120000D01*
X139120000Y-139120000D02*
X132880000Y-139120000D01*
%TO.C,R204*%
X163630000Y-140920000D02*
X163630000Y-147460000D01*
X163630000Y-147460000D02*
X163960000Y-147460000D01*
X163960000Y-140920000D02*
X163630000Y-140920000D01*
X166040000Y-140920000D02*
X166370000Y-140920000D01*
X166370000Y-140920000D02*
X166370000Y-147460000D01*
X166370000Y-147460000D02*
X166040000Y-147460000D01*
%TO.C,R202*%
X163630000Y-121920000D02*
X163630000Y-128460000D01*
X163630000Y-128460000D02*
X163960000Y-128460000D01*
X163960000Y-121920000D02*
X163630000Y-121920000D01*
X166040000Y-121920000D02*
X166370000Y-121920000D01*
X166370000Y-121920000D02*
X166370000Y-128460000D01*
X166370000Y-128460000D02*
X166040000Y-128460000D01*
%TO.C,TP1*%
X158700000Y-105000000D02*
G75*
G02*
X155300000Y-105000000I-1700000J0D01*
G01*
X155300000Y-105000000D02*
G75*
G02*
X158700000Y-105000000I1700000J0D01*
G01*
%TO.C,R203*%
X169630000Y-121920000D02*
X169960000Y-121920000D01*
X169630000Y-128460000D02*
X169630000Y-121920000D01*
X169960000Y-128460000D02*
X169630000Y-128460000D01*
X172040000Y-128460000D02*
X172370000Y-128460000D01*
X172370000Y-121920000D02*
X172040000Y-121920000D01*
X172370000Y-128460000D02*
X172370000Y-121920000D01*
%TO.C,RV1*%
X173630000Y-143329000D02*
X173630000Y-153120000D01*
X174880000Y-153120000D02*
X174880000Y-160120000D01*
X175380000Y-160120000D02*
X175380000Y-173100000D01*
X181620000Y-160120000D02*
X181620000Y-173100000D01*
X181620000Y-173100000D02*
X175400000Y-173100000D01*
X182120000Y-153120000D02*
X182120000Y-160120000D01*
X182120000Y-160120000D02*
X174880000Y-160120000D01*
X183370000Y-143329000D02*
X173630000Y-143329000D01*
X183370000Y-143329000D02*
X183370000Y-153120000D01*
X183370000Y-153120000D02*
X173630000Y-153120000D01*
%TO.C,C3*%
X116630000Y-123030000D02*
X116630000Y-127970000D01*
X116945000Y-123030000D02*
X116630000Y-123030000D01*
X116945000Y-127970000D02*
X116630000Y-127970000D01*
X119370000Y-123030000D02*
X119055000Y-123030000D01*
X119370000Y-123030000D02*
X119370000Y-127970000D01*
X119370000Y-127970000D02*
X119055000Y-127970000D01*
%TO.C,R201*%
X122630000Y-133540000D02*
X122630000Y-140080000D01*
X122630000Y-140080000D02*
X122960000Y-140080000D01*
X122960000Y-133540000D02*
X122630000Y-133540000D01*
X125040000Y-133540000D02*
X125370000Y-133540000D01*
X125370000Y-133540000D02*
X125370000Y-140080000D01*
X125370000Y-140080000D02*
X125040000Y-140080000D01*
%TO.C,R103*%
X122630000Y-120920000D02*
X122630000Y-127460000D01*
X122630000Y-127460000D02*
X122960000Y-127460000D01*
X122960000Y-120920000D02*
X122630000Y-120920000D01*
X125040000Y-120920000D02*
X125370000Y-120920000D01*
X125370000Y-120920000D02*
X125370000Y-127460000D01*
X125370000Y-127460000D02*
X125040000Y-127460000D01*
%TO.C,J3*%
X141900000Y-141150000D02*
X148500000Y-141150000D01*
X141900000Y-154150000D02*
X141900000Y-141150000D01*
X142700000Y-154150000D02*
X141900000Y-154150000D01*
X142700000Y-156150000D02*
X142700000Y-154150000D01*
X143000000Y-156150000D02*
X142700000Y-156150000D01*
X143000000Y-156150000D02*
X147700000Y-156150000D01*
X147700000Y-154150000D02*
X148500000Y-154150000D01*
X147700000Y-156150000D02*
X147700000Y-154150000D01*
X148500000Y-154150000D02*
X148500000Y-141150000D01*
%TO.C,D1*%
X145920000Y-114710000D02*
X145764000Y-114710000D01*
X148236000Y-114710000D02*
X148080000Y-114710000D01*
X145919939Y-117941397D02*
G75*
G02*
X145764484Y-114710000I1080061J1671397D01*
G01*
X145919951Y-117310910D02*
G75*
G02*
X145920000Y-115229039I1080049J1040910D01*
G01*
X148080000Y-115229039D02*
G75*
G02*
X148080049Y-117310910I-1080000J-1040961D01*
G01*
X148235516Y-114710000D02*
G75*
G02*
X148080061Y-117941397I-1235516J-1560000D01*
G01*
%TD*%
M02*
