M48
; DRILL file {KiCad 9.0.0} date 2025-03-25T20:25:00+0100
; FORMAT={-:-/ absolute / metric / decimal}
; #@! TF.CreationDate,2025-03-25T20:25:00+01:00
; #@! TF.GenerationSoftware,Kicad,Pcbnew,9.0.0
; #@! TF.FileFunction,Plated,1,2,PTH
FMAT,2
METRIC
; #@! TA.AperFunction,Plated,PTH,ComponentDrill
T1C0.500
; #@! TA.AperFunction,Plated,PTH,ComponentDrill
T2C0.700
; #@! TA.AperFunction,Plated,PTH,ComponentDrill
T3C0.800
; #@! TA.AperFunction,Plated,PTH,ComponentDrill
T4C0.900
; #@! TA.AperFunction,Plated,PTH,ComponentDrill
T5C1.000
; #@! TA.AperFunction,Plated,PTH,ComponentDrill
T6C2.000
; #@! TA.AperFunction,Plated,PTH,ComponentDrill
T7C2.500
%
G90
G05
T1
X100.825Y-102.7
X100.825Y-152.1
X101.374Y-101.374
X101.374Y-104.026
X101.374Y-150.774
X101.374Y-153.426
X102.7Y-100.825
X102.7Y-104.575
X102.7Y-150.225
X102.7Y-153.975
X104.026Y-101.374
X104.026Y-104.026
X104.026Y-150.774
X104.026Y-153.426
X104.575Y-102.7
X104.575Y-152.1
X190.225Y-102.7
X190.225Y-152.1
X190.774Y-101.374
X190.774Y-104.026
X190.774Y-150.774
X190.774Y-153.426
X192.1Y-100.825
X192.1Y-104.575
X192.1Y-150.225
X192.1Y-153.975
X193.426Y-101.374
X193.426Y-104.026
X193.426Y-150.774
X193.426Y-153.426
X193.975Y-102.7
X193.975Y-152.1
T3
X118.0Y-123.0
X118.0Y-128.0
X118.0Y-136.0
X118.0Y-141.0
X124.0Y-120.38
X124.0Y-128.0
X124.0Y-133.0
X124.0Y-140.62
X129.0Y-120.38
X129.0Y-128.0
X129.0Y-133.0
X129.0Y-140.62
X134.0Y-115.0
X136.0Y-123.0
X136.0Y-128.0
X136.0Y-133.0
X136.0Y-138.0
X141.62Y-115.0
X143.19Y-125.19
X143.19Y-127.73
X143.19Y-130.27
X143.19Y-132.81
X150.81Y-125.19
X150.81Y-127.73
X150.81Y-130.27
X150.81Y-132.81
X155.46Y-115.0
X158.0Y-115.0
X158.0Y-123.5
X158.0Y-128.5
X158.0Y-133.0
X158.0Y-138.0
X160.54Y-115.0
X165.0Y-121.38
X165.0Y-129.0
X165.0Y-140.38
X165.0Y-148.0
X170.0Y-140.38
X170.0Y-148.0
X171.0Y-121.38
X171.0Y-129.0
T4
X147.0Y-115.0
X147.0Y-117.54
T5
X107.0Y-125.0
X107.0Y-138.0
X112.0Y-125.0
X112.0Y-138.0
X176.0Y-145.5
X176.0Y-148.0
X178.5Y-145.5
X178.5Y-148.0
X181.0Y-145.5
X181.0Y-148.0
T6
X137.0Y-105.0
X147.0Y-105.0
X157.0Y-105.0
T7
X102.7Y-102.7
X102.7Y-152.1
X192.1Y-102.7
X192.1Y-152.1
T2
G00X143.0Y-144.4
M15
G01X143.0Y-143.6
M16
G05
G00X143.0Y-148.4
M15
G01X143.0Y-147.6
M16
G05
G00X143.0Y-151.4
M15
G01X143.0Y-150.6
M16
G05
G00X147.4Y-143.4
M15
G01X147.4Y-142.6
M16
G05
G00X167.6Y-111.6
M15
G01X167.6Y-112.4
M16
G05
G00X172.0Y-103.6
M15
G01X172.0Y-104.4
M16
G05
G00X172.0Y-106.6
M15
G01X172.0Y-107.4
M16
G05
G00X172.0Y-110.6
M15
G01X172.0Y-111.4
M16
G05
T5
G00X112.257Y-108.0
M15
G01X112.257Y-110.0
M16
G05
G00X117.957Y-106.0
M15
G01X115.957Y-106.0
M16
G05
G00X117.957Y-112.0
M15
G01X115.957Y-112.0
M16
G05
M30
