%TF.GenerationSoftware,KiCad,Pcbnew,9.0.0*%
%TF.CreationDate,2025-03-25T20:24:53+01:00*%
%TF.ProjectId,YAHA,59414841-2e6b-4696-9361-645f70636258,rev?*%
%TF.SameCoordinates,Original*%
%TF.FileFunction,Soldermask,Top*%
%TF.FilePolarity,Negative*%
%FSLAX46Y46*%
G04 Gerber Fmt 4.6, Leading zero omitted, Abs format (unit mm)*
G04 Created by KiCad (PCBNEW 9.0.0) date 2025-03-25 20:24:53*
%MOMM*%
%LPD*%
G01*
G04 APERTURE LIST*
G04 Aperture macros list*
%AMRoundRect*
0 Rectangle with rounded corners*
0 $1 Rounding radius*
0 $2 $3 $4 $5 $6 $7 $8 $9 X,Y pos of 4 corners*
0 Add a 4 corners polygon primitive as box body*
4,1,4,$2,$3,$4,$5,$6,$7,$8,$9,$2,$3,0*
0 Add four circle primitives for the rounded corners*
1,1,$1+$1,$2,$3*
1,1,$1+$1,$4,$5*
1,1,$1+$1,$6,$7*
1,1,$1+$1,$8,$9*
0 Add four rect primitives between the rounded corners*
20,1,$1+$1,$2,$3,$4,$5,0*
20,1,$1+$1,$4,$5,$6,$7,0*
20,1,$1+$1,$6,$7,$8,$9,0*
20,1,$1+$1,$8,$9,$2,$3,0*%
G04 Aperture macros list end*
%ADD10C,0.800000*%
%ADD11C,5.000000*%
%ADD12C,3.000000*%
%ADD13C,1.600000*%
%ADD14RoundRect,0.250000X-0.550000X-0.550000X0.550000X-0.550000X0.550000X0.550000X-0.550000X0.550000X0*%
%ADD15R,1.500000X1.500000*%
%ADD16C,1.500000*%
%ADD17O,1.600000X1.600000*%
%ADD18R,2.000000X2.000000*%
%ADD19C,2.000000*%
%ADD20R,3.500000X3.500000*%
%ADD21RoundRect,0.750000X-1.000000X0.750000X-1.000000X-0.750000X1.000000X-0.750000X1.000000X0.750000X0*%
%ADD22RoundRect,0.875000X-0.875000X0.875000X-0.875000X-0.875000X0.875000X-0.875000X0.875000X0.875000X0*%
%ADD23RoundRect,0.450000X-0.450000X0.450000X-0.450000X-0.450000X0.450000X-0.450000X0.450000X0.450000X0*%
%ADD24C,1.800000*%
%ADD25R,1.800000X1.800000*%
G04 APERTURE END LIST*
D10*
%TO.C,H4*%
X100825000Y-152100000D03*
X101374175Y-150774175D03*
X101374175Y-153425825D03*
X102700000Y-150225000D03*
D11*
X102700000Y-152100000D03*
D10*
X102700000Y-153975000D03*
X104025825Y-150774175D03*
X104025825Y-153425825D03*
X104575000Y-152100000D03*
%TD*%
D12*
%TO.C,TP2*%
X137000000Y-105000000D03*
%TD*%
D13*
%TO.C,C4*%
X118000000Y-136000000D03*
X118000000Y-141000000D03*
%TD*%
D14*
%TO.C,IC1*%
X143190000Y-125190000D03*
D13*
X143190000Y-127730000D03*
X143190000Y-130270000D03*
X143190000Y-132810000D03*
X150810000Y-132810000D03*
X150810000Y-130270000D03*
X150810000Y-127730000D03*
X150810000Y-125190000D03*
%TD*%
D15*
%TO.C,IC2*%
X155460000Y-115000000D03*
D16*
X158000000Y-115000000D03*
X160540000Y-115000000D03*
%TD*%
D13*
%TO.C,C201*%
X158000000Y-133000000D03*
X158000000Y-138000000D03*
%TD*%
%TO.C,R102*%
X129000000Y-120380000D03*
D17*
X129000000Y-128000000D03*
%TD*%
D18*
%TO.C,C1*%
X112000000Y-138000000D03*
D19*
X107000000Y-138000000D03*
%TD*%
D18*
%TO.C,C2*%
X112000000Y-125000000D03*
D19*
X107000000Y-125000000D03*
%TD*%
D13*
%TO.C,R101*%
X129000000Y-133000000D03*
D17*
X129000000Y-140620000D03*
%TD*%
D10*
%TO.C,H1*%
X100825000Y-102700000D03*
X101374175Y-101374175D03*
X101374175Y-104025825D03*
X102700000Y-100825000D03*
D11*
X102700000Y-102700000D03*
D10*
X102700000Y-104575000D03*
X104025825Y-101374175D03*
X104025825Y-104025825D03*
X104575000Y-102700000D03*
%TD*%
D20*
%TO.C,J1*%
X116957500Y-112000000D03*
D21*
X116957500Y-106000000D03*
D22*
X112257500Y-109000000D03*
%TD*%
D13*
%TO.C,C102*%
X136000000Y-123000000D03*
X136000000Y-128000000D03*
%TD*%
%TO.C,R104*%
X170000000Y-140380000D03*
D17*
X170000000Y-148000000D03*
%TD*%
D13*
%TO.C,R1*%
X134000000Y-115000000D03*
D17*
X141620000Y-115000000D03*
%TD*%
D13*
%TO.C,C202*%
X158000000Y-123500000D03*
X158000000Y-128500000D03*
%TD*%
D12*
%TO.C,TP3*%
X147000000Y-105000000D03*
%TD*%
D13*
%TO.C,J2*%
X172000000Y-107000000D03*
X172000000Y-104000000D03*
X167600000Y-112000000D03*
X172000000Y-111000000D03*
%TD*%
%TO.C,C101*%
X136000000Y-133000000D03*
X136000000Y-138000000D03*
%TD*%
%TO.C,R204*%
X165000000Y-140380000D03*
D17*
X165000000Y-148000000D03*
%TD*%
D10*
%TO.C,H2*%
X190225000Y-102700000D03*
X190774175Y-101374175D03*
X190774175Y-104025825D03*
X192100000Y-100825000D03*
D11*
X192100000Y-102700000D03*
D10*
X192100000Y-104575000D03*
X193425825Y-101374175D03*
X193425825Y-104025825D03*
X193975000Y-102700000D03*
%TD*%
D13*
%TO.C,R202*%
X165000000Y-121380000D03*
D17*
X165000000Y-129000000D03*
%TD*%
D12*
%TO.C,TP1*%
X157000000Y-105000000D03*
%TD*%
D13*
%TO.C,R203*%
X171000000Y-129000000D03*
D17*
X171000000Y-121380000D03*
%TD*%
D23*
%TO.C,RV1*%
X176000000Y-148000000D03*
D24*
X178500000Y-148000000D03*
X181000000Y-148000000D03*
X176000000Y-145500000D03*
X178500000Y-145500000D03*
X181000000Y-145500000D03*
%TD*%
D13*
%TO.C,C3*%
X118000000Y-123000000D03*
X118000000Y-128000000D03*
%TD*%
%TO.C,R201*%
X124000000Y-133000000D03*
D17*
X124000000Y-140620000D03*
%TD*%
D13*
%TO.C,R103*%
X124000000Y-120380000D03*
D17*
X124000000Y-128000000D03*
%TD*%
D13*
%TO.C,J3*%
X143000000Y-148000000D03*
X143000000Y-151000000D03*
X147400000Y-143000000D03*
X143000000Y-144000000D03*
%TD*%
D10*
%TO.C,H3*%
X190225000Y-152100000D03*
X190774175Y-150774175D03*
X190774175Y-153425825D03*
X192100000Y-150225000D03*
D11*
X192100000Y-152100000D03*
D10*
X192100000Y-153975000D03*
X193425825Y-150774175D03*
X193425825Y-153425825D03*
X193975000Y-152100000D03*
%TD*%
D25*
%TO.C,D1*%
X147000000Y-115000000D03*
D24*
X147000000Y-117540000D03*
%TD*%
M02*
